<svg width="345" height="117" viewBox="0 0 345 117" fill="none" xmlns="http://www.w3.org/2000/svg">
<path d="M17.0187 51.915H18.2947V52.223C18.2947 52.575 18.236 52.916 18.1187 53.246C18.0087 53.576 17.84 53.884 17.6127 54.17C17.3853 54.4487 17.1067 54.7017 16.7767 54.929C16.454 55.149 16.08 55.336 15.6547 55.49C15.2293 55.644 14.7563 55.754 14.2357 55.82L13.6967 54.687C14.1513 54.6283 14.5547 54.5403 14.9067 54.423C15.266 54.2983 15.5777 54.1553 15.8417 53.994C16.1057 53.8253 16.3257 53.6457 16.5017 53.455C16.6777 53.2643 16.806 53.0627 16.8867 52.85C16.9747 52.6373 17.0187 52.4283 17.0187 52.223V51.915ZM17.4477 51.915H18.7127V52.223C18.7127 52.4283 18.753 52.6373 18.8337 52.85C18.9217 53.0627 19.0537 53.2643 19.2297 53.455C19.4057 53.6457 19.6257 53.8253 19.8897 53.994C20.161 54.1553 20.4727 54.2983 20.8247 54.423C21.1767 54.5403 21.58 54.6283 22.0347 54.687L21.4957 55.82C20.975 55.754 20.502 55.644 20.0767 55.49C19.6513 55.336 19.2737 55.149 18.9437 54.929C18.621 54.7017 18.346 54.4487 18.1187 54.17C17.8987 53.884 17.73 53.576 17.6127 53.246C17.5027 52.916 17.4477 52.575 17.4477 52.223V51.915ZM17.0957 57.25H18.5587V60.979H17.0957V57.25ZM13.2567 56.403H22.4747V57.58H13.2567V56.403ZM14.0707 51.31H21.6277V52.465H14.0707V51.31ZM23.1008 58.592H32.3298V59.78H23.1008V58.592ZM26.9288 56.326H28.3918V58.911H26.9288V56.326ZM26.8848 51.354H28.1608V52.091C28.1608 52.5237 28.0985 52.9417 27.9738 53.345C27.8565 53.7483 27.6768 54.1297 27.4348 54.489C27.2001 54.8483 26.9105 55.1747 26.5658 55.468C26.2211 55.754 25.8251 55.9997 25.3778 56.205C24.9378 56.4103 24.4501 56.5607 23.9148 56.656L23.3098 55.435C23.7791 55.3617 24.2008 55.2443 24.5748 55.083C24.9488 54.9217 25.2788 54.731 25.5648 54.511C25.8581 54.2837 26.1001 54.038 26.2908 53.774C26.4888 53.5027 26.6355 53.224 26.7308 52.938C26.8335 52.652 26.8848 52.3697 26.8848 52.091V51.354ZM27.1598 51.354H28.4468V52.091C28.4468 52.377 28.4945 52.663 28.5898 52.949C28.6925 53.235 28.8391 53.51 29.0298 53.774C29.2278 54.038 29.4698 54.2837 29.7558 54.511C30.0418 54.731 30.3718 54.9217 30.7458 55.083C31.1271 55.2443 31.5488 55.3617 32.0108 55.435L31.4058 56.656C30.8705 56.5533 30.3828 56.403 29.9428 56.205C29.5028 55.9997 29.1105 55.754 28.7658 55.468C28.4211 55.182 28.1278 54.863 27.8858 54.511C27.6511 54.1517 27.4715 53.7703 27.3468 53.367C27.2221 52.9563 27.1598 52.531 27.1598 52.091V51.354ZM42.7575 50.782H44.1435V60.968H42.7575V50.782ZM38.8855 54.5H41.2505V55.677H38.8855V54.5ZM40.6455 50.969H42.0095V60.528H40.6455V50.969ZM35.6845 57.514H36.3995C36.8761 57.514 37.3088 57.5067 37.6975 57.492C38.0935 57.4773 38.4675 57.4517 38.8195 57.415C39.1788 57.3783 39.5418 57.3233 39.9085 57.25L40.0295 58.438C39.6481 58.5187 39.2741 58.5773 38.9075 58.614C38.5408 58.6507 38.1521 58.6763 37.7415 58.691C37.3381 58.7057 36.8908 58.713 36.3995 58.713H35.6845V57.514ZM35.6845 51.937H39.5785V53.092H37.1255V58.02H35.6845V51.937ZM52.2276 50.771H53.6906V60.99H52.2276V50.771ZM48.2016 51.486C48.7223 51.486 49.1843 51.6363 49.5876 51.937C49.9909 52.2303 50.3063 52.652 50.5336 53.202C50.7683 53.7447 50.8856 54.3863 50.8856 55.127C50.8856 55.875 50.7683 56.524 50.5336 57.074C50.3063 57.6167 49.9909 58.0383 49.5876 58.339C49.1843 58.6323 48.7223 58.779 48.2016 58.779C47.6883 58.779 47.2299 58.6323 46.8266 58.339C46.4233 58.0383 46.1043 57.6167 45.8696 57.074C45.6423 56.524 45.5286 55.875 45.5286 55.127C45.5286 54.3863 45.6423 53.7447 45.8696 53.202C46.1043 52.652 46.4233 52.2303 46.8266 51.937C47.2299 51.6363 47.6883 51.486 48.2016 51.486ZM48.2016 52.817C47.9523 52.817 47.7323 52.905 47.5416 53.081C47.3509 53.257 47.2006 53.5173 47.0906 53.862C46.9879 54.1993 46.9366 54.621 46.9366 55.127C46.9366 55.6257 46.9879 56.051 47.0906 56.403C47.2006 56.7477 47.3509 57.008 47.5416 57.184C47.7323 57.36 47.9523 57.448 48.2016 57.448C48.4583 57.448 48.6819 57.36 48.8726 57.184C49.0633 57.008 49.2099 56.7477 49.3126 56.403C49.4226 56.051 49.4776 55.6257 49.4776 55.127C49.4776 54.621 49.4226 54.1993 49.3126 53.862C49.2099 53.5173 49.0633 53.257 48.8726 53.081C48.6819 52.905 48.4583 52.817 48.2016 52.817ZM62.1707 50.771H63.6337V60.99H62.1707V50.771ZM60.4217 54.368H62.3467V55.556H60.4217V54.368ZM55.5377 57.514H56.3627C56.9274 57.514 57.4481 57.5067 57.9247 57.492C58.4087 57.4773 58.8781 57.4517 59.3327 57.415C59.7874 57.3783 60.2531 57.327 60.7297 57.261L60.8727 58.416C60.3814 58.4967 59.8974 58.5553 59.4207 58.592C58.9514 58.6287 58.4674 58.6543 57.9687 58.669C57.4701 58.6837 56.9347 58.691 56.3627 58.691H55.5377V57.514ZM55.5377 51.629H60.2567V52.817H57.0007V57.877H55.5377V51.629ZM56.6597 54.467H59.9157V55.611H56.6597V54.467ZM67.8354 51.53H72.1914V52.696H67.8354V51.53ZM69.0894 53.906H70.5304V56.447H69.0894V53.906ZM71.6194 51.53H73.0604V52.168C73.0604 52.5273 73.0494 52.9563 73.0274 53.455C73.0127 53.9463 72.9431 54.5147 72.8184 55.16L71.3994 54.995C71.5094 54.3717 71.5717 53.8327 71.5864 53.378C71.6084 52.9233 71.6194 52.52 71.6194 52.168V51.53ZM74.0394 50.782H75.5134V58.405H74.0394V50.782ZM74.9304 53.895H76.7344V55.094H74.9304V53.895ZM68.7154 59.626H75.8434V60.803H68.7154V59.626ZM68.7154 57.734H70.1894V59.989H68.7154V57.734ZM67.3624 57.052L67.2304 55.886C67.8171 55.886 68.4661 55.8823 69.1774 55.875C69.8887 55.8603 70.6147 55.831 71.3554 55.787C72.0961 55.7357 72.8074 55.6623 73.4894 55.567L73.5884 56.612C72.8844 56.7367 72.1657 56.832 71.4324 56.898C70.6991 56.9567 69.9841 56.997 69.2874 57.019C68.5907 57.0337 67.9491 57.0447 67.3624 57.052ZM84.2355 50.771H85.7095V60.99H84.2355V50.771ZM77.7785 57.426H78.6805C79.2819 57.426 79.8502 57.4187 80.3855 57.404C80.9209 57.382 81.4452 57.349 81.9585 57.305C82.4719 57.2537 82.9962 57.1803 83.5315 57.085L83.6855 58.262C82.8642 58.4087 82.0539 58.5077 81.2545 58.559C80.4625 58.603 79.6045 58.625 78.6805 58.625H77.7785V57.426ZM77.7565 51.64H82.5635V55.589H79.2635V57.877H77.7785V54.434H81.0785V52.817H77.7565V51.64ZM90.0322 51.398H94.9712V55.699H90.0322V51.398ZM93.5412 52.542H91.4732V54.566H93.5412V52.542ZM96.5222 50.793H97.9852V56.568H96.5222V50.793ZM93.7942 57.866H95.0482V58.009C95.0482 58.3683 94.9602 58.713 94.7842 59.043C94.6155 59.3657 94.3589 59.6627 94.0142 59.934C93.6769 60.198 93.2589 60.418 92.7602 60.594C92.2615 60.77 91.6859 60.8873 91.0332 60.946L90.5712 59.857C91.0112 59.813 91.4035 59.747 91.7482 59.659C92.1002 59.571 92.4045 59.4647 92.6612 59.34C92.9252 59.2153 93.1379 59.0797 93.2992 58.933C93.4679 58.779 93.5925 58.625 93.6732 58.471C93.7539 58.3097 93.7942 58.1557 93.7942 58.009V57.866ZM94.0472 57.866H95.3122V58.009C95.3122 58.185 95.3745 58.372 95.4992 58.57C95.6312 58.7607 95.8255 58.944 96.0822 59.12C96.3462 59.296 96.6799 59.45 97.0832 59.582C97.4939 59.714 97.9742 59.8057 98.5242 59.857L98.0512 60.946C97.3985 60.8873 96.8229 60.7663 96.3242 60.583C95.8255 60.407 95.4075 60.1833 95.0702 59.912C94.7329 59.6407 94.4762 59.3437 94.3002 59.021C94.1315 58.6983 94.0472 58.361 94.0472 58.009V57.866ZM90.9672 57.107H98.1282V58.207H90.9672V57.107ZM93.8052 56.282H95.3012V57.624H93.8052V56.282ZM37.6319 63.782H39.0949V73.968H37.6319V63.782ZM34.6289 64.838H36.0699C36.0699 65.6153 35.9929 66.3597 35.8389 67.071C35.6922 67.775 35.4429 68.4387 35.0909 69.062C34.7462 69.6853 34.2696 70.2647 33.6609 70.8C33.0596 71.328 32.3079 71.812 31.4059 72.252L30.6359 71.097C31.6186 70.6203 32.3996 70.096 32.9789 69.524C33.5656 68.9447 33.9872 68.292 34.2439 67.566C34.5006 66.8327 34.6289 66.0113 34.6289 65.102V64.838ZM31.1859 64.838H35.3109V66.004H31.1859V64.838ZM42.724 69.326H44.176V72.065H42.724V69.326ZM45.925 69.337H47.377V72.076H45.925V69.337ZM40.458 71.68H49.687V72.857H40.458V71.68ZM41.162 64.585H48.928V65.762H41.162V64.585ZM41.217 68.611H48.895V69.766H41.217V68.611ZM42.548 65.553H44.011V68.776H42.548V65.553ZM46.079 65.553H47.542V68.776H46.079V65.553ZM52.7552 65.399H53.9212V66.543C53.9212 67.1297 53.8588 67.7053 53.7342 68.27C53.6168 68.8347 53.4372 69.3663 53.1952 69.865C52.9605 70.3563 52.6635 70.7927 52.3042 71.174C51.9448 71.548 51.5268 71.845 51.0502 72.065L50.2142 70.91C50.6395 70.712 51.0098 70.4553 51.3252 70.14C51.6478 69.8247 51.9118 69.4727 52.1172 69.084C52.3298 68.688 52.4875 68.2737 52.5902 67.841C52.7002 67.401 52.7552 66.9683 52.7552 66.543V65.399ZM53.0742 65.399H54.2292V66.543C54.2292 66.9463 54.2805 67.357 54.3832 67.775C54.4932 68.1857 54.6508 68.578 54.8562 68.952C55.0615 69.3187 55.3218 69.6487 55.6372 69.942C55.9525 70.2353 56.3265 70.47 56.7592 70.646L55.9562 71.812C55.4722 71.5993 55.0505 71.3133 54.6912 70.954C54.3318 70.5947 54.0312 70.1803 53.7892 69.711C53.5472 69.2417 53.3675 68.7393 53.2502 68.204C53.1328 67.6613 53.0742 67.1077 53.0742 66.543V65.399ZM50.6212 64.761H56.3412V65.971H50.6212V64.761ZM57.2872 63.793H58.7502V73.979H57.2872V63.793ZM66.4718 68.974H67.9238V70.437H66.4718V68.974ZM62.6218 68.116H71.7848V69.183H62.6218V68.116ZM66.4608 63.782H67.9238V65.003H66.4608V63.782ZM66.3728 65.069H67.6598V65.278C67.6598 65.6447 67.5682 65.9783 67.3848 66.279C67.2015 66.5723 66.9302 66.8327 66.5708 67.06C66.2115 67.28 65.7642 67.4597 65.2288 67.599C64.6935 67.731 64.0738 67.8153 63.3698 67.852L62.9628 66.774C63.5862 66.7447 64.1142 66.686 64.5468 66.598C64.9795 66.5027 65.3278 66.389 65.5918 66.257C65.8632 66.1177 66.0612 65.9637 66.1858 65.795C66.3105 65.6263 66.3728 65.454 66.3728 65.278V65.069ZM66.7248 65.069H68.0118V65.278C68.0118 65.454 68.0705 65.6263 68.1878 65.795C68.3125 65.9637 68.5105 66.1177 68.7818 66.257C69.0532 66.389 69.4052 66.5027 69.8378 66.598C70.2778 66.686 70.8058 66.7447 71.4218 66.774L71.0148 67.852C70.3108 67.8153 69.6912 67.731 69.1558 67.599C68.6205 67.4597 68.1732 67.28 67.8138 67.06C67.4545 66.8327 67.1832 66.5723 66.9998 66.279C66.8165 65.9783 66.7248 65.6447 66.7248 65.278V65.069ZM63.4688 64.574H70.9158V65.641H63.4688V64.574ZM63.6448 69.799H70.6848V72.318H65.1078V73.286H63.6558V71.339H69.2438V70.844H63.6448V69.799ZM63.6558 72.846H70.9598V73.913H63.6558V72.846ZM72.829 68.633H73.599C74.237 68.633 74.7833 68.6293 75.238 68.622C75.7 68.6073 76.1216 68.5817 76.503 68.545C76.8843 68.5083 77.262 68.457 77.636 68.391L77.79 69.557C77.4893 69.6083 77.1923 69.6523 76.899 69.689C76.613 69.7257 76.305 69.7513 75.975 69.766C75.6523 69.7807 75.2966 69.7917 74.908 69.799C74.5266 69.8063 74.0903 69.81 73.599 69.81H72.829V68.633ZM72.807 64.365H77.284V67.577H74.281V69.414H72.829V66.488H75.843V65.531H72.807V64.365ZM79.495 63.793H80.969V70.074H79.495V63.793ZM77.867 65.201H79.77V66.367H77.867V65.201ZM77.867 67.368H79.77V68.534H77.867V67.368ZM73.984 70.536H80.969V73.979H79.495V71.691H73.984V70.536Z" fill="black" fill-opacity="0.8"/>
<path d="M161.17 105.793H162.633V111.898H161.17V105.793ZM162.237 108.257H163.986V109.456H162.237V108.257ZM155.835 112.349H162.633V115.979H161.17V113.504H155.835V112.349ZM154.911 106.42H156.363V107.773H158.365V106.42H159.806V111.381H154.911V106.42ZM156.363 108.895V110.237H158.365V108.895H156.363ZM168.253 106.376H169.518V107.113C169.518 107.553 169.456 107.982 169.331 108.4C169.214 108.811 169.038 109.199 168.803 109.566C168.569 109.933 168.279 110.266 167.934 110.567C167.597 110.86 167.208 111.113 166.768 111.326C166.328 111.539 165.844 111.696 165.316 111.799L164.689 110.578C165.144 110.497 165.558 110.376 165.932 110.215C166.314 110.046 166.647 109.845 166.933 109.61C167.219 109.375 167.461 109.122 167.659 108.851C167.857 108.572 168.004 108.286 168.099 107.993C168.202 107.692 168.253 107.399 168.253 107.113V106.376ZM168.539 106.376H169.815V107.113C169.815 107.406 169.863 107.703 169.958 108.004C170.061 108.305 170.208 108.594 170.398 108.873C170.596 109.144 170.838 109.394 171.124 109.621C171.41 109.848 171.74 110.046 172.114 110.215C172.488 110.376 172.91 110.497 173.379 110.578L172.752 111.799C172.224 111.696 171.74 111.539 171.3 111.326C170.86 111.113 170.468 110.86 170.123 110.567C169.786 110.274 169.496 109.944 169.254 109.577C169.02 109.21 168.84 108.818 168.715 108.4C168.598 107.982 168.539 107.553 168.539 107.113V106.376ZM164.469 113.537H173.698V114.736H164.469V113.537ZM174.314 113.647H183.543V114.835H174.314V113.647ZM178.175 111.337H179.627V114.175H178.175V111.337ZM175.018 106.618H182.784V107.795H175.018V106.618ZM175.073 110.677H182.751V111.832H175.073V110.677ZM176.404 107.586H177.867V110.809H176.404V107.586ZM179.935 107.586H181.398V110.809H179.935V107.586ZM186.424 106.926H187.623V107.564C187.623 108.209 187.516 108.822 187.304 109.401C187.098 109.98 186.783 110.49 186.358 110.93C185.932 111.363 185.393 111.685 184.741 111.898L184.015 110.743C184.572 110.56 185.027 110.303 185.379 109.973C185.738 109.636 186.002 109.258 186.171 108.84C186.339 108.415 186.424 107.989 186.424 107.564V106.926ZM186.721 106.926H187.898V107.564C187.898 107.96 187.978 108.345 188.14 108.719C188.301 109.086 188.55 109.416 188.888 109.709C189.232 110.002 189.68 110.233 190.23 110.402L189.526 111.546C188.88 111.355 188.349 111.062 187.931 110.666C187.52 110.263 187.216 109.797 187.018 109.269C186.82 108.734 186.721 108.165 186.721 107.564V106.926ZM184.389 106.464H189.9V107.63H184.389V106.464ZM190.703 105.793H192.166V111.832H190.703V105.793ZM191.77 108.125H193.519V109.324H191.77V108.125ZM188.844 112.008C189.555 112.008 190.167 112.089 190.681 112.25C191.194 112.404 191.59 112.628 191.869 112.921C192.147 113.214 192.287 113.57 192.287 113.988C192.287 114.406 192.147 114.762 191.869 115.055C191.59 115.356 191.194 115.583 190.681 115.737C190.167 115.898 189.555 115.979 188.844 115.979C188.14 115.979 187.527 115.898 187.007 115.737C186.493 115.583 186.094 115.356 185.808 115.055C185.529 114.762 185.39 114.406 185.39 113.988C185.39 113.57 185.529 113.214 185.808 112.921C186.094 112.628 186.493 112.404 187.007 112.25C187.527 112.089 188.14 112.008 188.844 112.008ZM188.844 113.152C188.411 113.152 188.048 113.181 187.755 113.24C187.461 113.299 187.238 113.39 187.084 113.515C186.93 113.64 186.853 113.797 186.853 113.988C186.853 114.186 186.93 114.347 187.084 114.472C187.238 114.597 187.461 114.692 187.755 114.758C188.048 114.817 188.411 114.846 188.844 114.846C189.276 114.846 189.639 114.817 189.933 114.758C190.233 114.692 190.457 114.597 190.604 114.472C190.758 114.347 190.835 114.186 190.835 113.988C190.835 113.797 190.758 113.64 190.604 113.515C190.457 113.39 190.233 113.299 189.933 113.24C189.639 113.181 189.276 113.152 188.844 113.152Z" fill="black" fill-opacity="0.8"/>
<path d="M149.099 50.793H150.562V58.196H149.099V50.793ZM150.155 53.697H151.915V54.907H150.155V53.697ZM143.995 59.626H150.925V60.803H143.995V59.626ZM143.995 57.426H145.469V60.154H143.995V57.426ZM145.381 51.442C145.902 51.442 146.371 51.552 146.789 51.772C147.207 51.992 147.537 52.2963 147.779 52.685C148.029 53.0737 148.153 53.521 148.153 54.027C148.153 54.5257 148.029 54.973 147.779 55.369C147.537 55.7577 147.207 56.0657 146.789 56.293C146.371 56.513 145.902 56.623 145.381 56.623C144.861 56.623 144.391 56.513 143.973 56.293C143.555 56.0657 143.225 55.7577 142.983 55.369C142.741 54.973 142.62 54.5257 142.62 54.027C142.62 53.521 142.741 53.0737 142.983 52.685C143.225 52.2963 143.555 51.992 143.973 51.772C144.391 51.552 144.861 51.442 145.381 51.442ZM145.381 52.707C145.132 52.707 144.905 52.762 144.699 52.872C144.501 52.9747 144.344 53.125 144.226 53.323C144.109 53.5137 144.05 53.7483 144.05 54.027C144.05 54.3057 144.109 54.544 144.226 54.742C144.344 54.9327 144.501 55.083 144.699 55.193C144.905 55.2957 145.132 55.347 145.381 55.347C145.638 55.347 145.865 55.2957 146.063 55.193C146.269 55.083 146.43 54.9327 146.547 54.742C146.665 54.544 146.723 54.3057 146.723 54.027C146.723 53.7483 146.665 53.5137 146.547 53.323C146.43 53.125 146.269 52.9747 146.063 52.872C145.865 52.762 145.638 52.707 145.381 52.707ZM157.854 53.422H160.219V54.599H157.854V53.422ZM159.449 50.793H160.923V58.218H159.449V50.793ZM154.191 59.626H161.154V60.803H154.191V59.626ZM154.191 57.591H155.654V60.319H154.191V57.591ZM154.752 52.124H155.94V52.762C155.94 53.4073 155.838 54.0197 155.632 54.599C155.427 55.1783 155.112 55.688 154.686 56.128C154.268 56.5607 153.729 56.887 153.069 57.107L152.343 55.941C152.761 55.8017 153.121 55.622 153.421 55.402C153.729 55.1747 153.979 54.918 154.169 54.632C154.367 54.346 154.514 54.0453 154.609 53.73C154.705 53.4147 154.752 53.092 154.752 52.762V52.124ZM155.06 52.124H156.226V52.762C156.226 53.158 156.307 53.554 156.468 53.95C156.63 54.3387 156.879 54.6943 157.216 55.017C157.561 55.3323 158.001 55.5817 158.536 55.765L157.821 56.898C157.191 56.6853 156.67 56.3737 156.259 55.963C155.856 55.545 155.555 55.061 155.357 54.511C155.159 53.9537 155.06 53.3707 155.06 52.762V52.124ZM152.739 51.475H158.217V52.641H152.739V51.475ZM162.232 55.699H171.45V56.854H162.232V55.699ZM166.104 54.5H167.556V56.018H166.104V54.5ZM166.819 57.338C167.926 57.338 168.791 57.4993 169.415 57.822C170.038 58.1373 170.35 58.5847 170.35 59.164C170.35 59.7507 170.038 60.198 169.415 60.506C168.791 60.8213 167.926 60.979 166.819 60.979C165.719 60.979 164.853 60.8213 164.223 60.506C163.599 60.198 163.288 59.7507 163.288 59.164C163.288 58.5847 163.599 58.1373 164.223 57.822C164.853 57.4993 165.719 57.338 166.819 57.338ZM166.819 58.438C166.364 58.438 165.983 58.4637 165.675 58.515C165.374 58.5663 165.147 58.647 164.993 58.757C164.839 58.8597 164.762 58.9953 164.762 59.164C164.762 59.3253 164.839 59.461 164.993 59.571C165.147 59.6737 165.374 59.7543 165.675 59.813C165.983 59.8643 166.364 59.89 166.819 59.89C167.281 59.89 167.662 59.8643 167.963 59.813C168.263 59.7543 168.491 59.6737 168.645 59.571C168.799 59.461 168.876 59.3253 168.876 59.164C168.876 58.9953 168.799 58.8597 168.645 58.757C168.491 58.647 168.263 58.5663 167.963 58.515C167.662 58.4637 167.281 58.438 166.819 58.438ZM163.409 51.079H164.85V51.937H168.832V51.079H170.284V54.94H163.409V51.079ZM164.85 53.026V53.796H168.832V53.026H164.85ZM172.076 56.832H181.305V58.02H172.076V56.832ZM175.948 57.239H177.411V60.99H175.948V57.239ZM173.22 54.94H180.337V56.095H173.22V54.94ZM173.22 51.189H180.238V52.333H174.672V55.204H173.22V51.189ZM174.254 53.07H180.018V54.181H174.254V53.07ZM184.384 58.647H193.613V59.835H184.384V58.647ZM188.245 56.337H189.697V59.175H188.245V56.337ZM185.088 51.618H192.854V52.795H185.088V51.618ZM185.143 55.677H192.821V56.832H185.143V55.677ZM186.474 52.586H187.937V55.809H186.474V52.586ZM190.005 52.586H191.468V55.809H190.005V52.586ZM196.495 51.926H197.694V52.564C197.694 53.2093 197.587 53.8217 197.375 54.401C197.169 54.9803 196.854 55.49 196.429 55.93C196.003 56.3627 195.464 56.6853 194.812 56.898L194.086 55.743C194.643 55.5597 195.098 55.303 195.45 54.973C195.809 54.6357 196.073 54.258 196.242 53.84C196.41 53.4147 196.495 52.9893 196.495 52.564V51.926ZM196.792 51.926H197.969V52.564C197.969 52.96 198.049 53.345 198.211 53.719C198.372 54.0857 198.621 54.4157 198.959 54.709C199.303 55.0023 199.751 55.2333 200.301 55.402L199.597 56.546C198.951 56.3553 198.42 56.062 198.002 55.666C197.591 55.2627 197.287 54.797 197.089 54.269C196.891 53.7337 196.792 53.1653 196.792 52.564V51.926ZM194.46 51.464H199.971V52.63H194.46V51.464ZM200.774 50.793H202.237V56.832H200.774V50.793ZM201.841 53.125H203.59V54.324H201.841V53.125ZM198.915 57.008C199.626 57.008 200.238 57.0887 200.752 57.25C201.265 57.404 201.661 57.6277 201.94 57.921C202.218 58.2143 202.358 58.57 202.358 58.988C202.358 59.406 202.218 59.7617 201.94 60.055C201.661 60.3557 201.265 60.583 200.752 60.737C200.238 60.8983 199.626 60.979 198.915 60.979C198.211 60.979 197.598 60.8983 197.078 60.737C196.564 60.583 196.165 60.3557 195.879 60.055C195.6 59.7617 195.461 59.406 195.461 58.988C195.461 58.57 195.6 58.2143 195.879 57.921C196.165 57.6277 196.564 57.404 197.078 57.25C197.598 57.0887 198.211 57.008 198.915 57.008ZM198.915 58.152C198.482 58.152 198.119 58.1813 197.826 58.24C197.532 58.2987 197.309 58.3903 197.155 58.515C197.001 58.6397 196.924 58.7973 196.924 58.988C196.924 59.186 197.001 59.3473 197.155 59.472C197.309 59.5967 197.532 59.692 197.826 59.758C198.119 59.8167 198.482 59.846 198.915 59.846C199.347 59.846 199.71 59.8167 200.004 59.758C200.304 59.692 200.528 59.5967 200.675 59.472C200.829 59.3473 200.906 59.186 200.906 58.988C200.906 58.7973 200.829 58.6397 200.675 58.515C200.528 58.3903 200.304 58.2987 200.004 58.24C199.71 58.1813 199.347 58.152 198.915 58.152Z" fill="black" fill-opacity="0.8"/>
<path d="M149.539 68.771H151.002V78.99H149.539V68.771ZM143.049 69.585H144.501V72.071H146.613V69.585H148.065V76.614H143.049V69.585ZM144.501 73.204V75.448H146.613V73.204H144.501ZM152.97 69.277H154.433V73.072H152.97V69.277ZM152.97 72.346H153.85C154.371 72.346 154.888 72.335 155.401 72.313C155.922 72.2837 156.443 72.2397 156.963 72.181C157.491 72.115 158.027 72.027 158.569 71.917L158.734 73.072C158.177 73.1893 157.623 73.281 157.073 73.347C156.531 73.413 155.992 73.4607 155.456 73.49C154.921 73.512 154.386 73.523 153.85 73.523H152.97V72.346ZM159.394 68.782H160.857V73.831H159.394V68.782ZM154.07 74.271H160.857V77.054H155.544V78.132H154.081V75.998H159.383V75.382H154.07V74.271ZM154.081 77.725H161.11V78.869H154.081V77.725ZM162.232 73.699H171.45V74.854H162.232V73.699ZM166.104 72.5H167.556V74.018H166.104V72.5ZM166.819 75.338C167.926 75.338 168.791 75.4993 169.415 75.822C170.038 76.1373 170.35 76.5847 170.35 77.164C170.35 77.7507 170.038 78.198 169.415 78.506C168.791 78.8213 167.926 78.979 166.819 78.979C165.719 78.979 164.853 78.8213 164.223 78.506C163.599 78.198 163.288 77.7507 163.288 77.164C163.288 76.5847 163.599 76.1373 164.223 75.822C164.853 75.4993 165.719 75.338 166.819 75.338ZM166.819 76.438C166.364 76.438 165.983 76.4637 165.675 76.515C165.374 76.5663 165.147 76.647 164.993 76.757C164.839 76.8597 164.762 76.9953 164.762 77.164C164.762 77.3253 164.839 77.461 164.993 77.571C165.147 77.6737 165.374 77.7543 165.675 77.813C165.983 77.8643 166.364 77.89 166.819 77.89C167.281 77.89 167.662 77.8643 167.963 77.813C168.263 77.7543 168.491 77.6737 168.645 77.571C168.799 77.461 168.876 77.3253 168.876 77.164C168.876 76.9953 168.799 76.8597 168.645 76.757C168.491 76.647 168.263 76.5663 167.963 76.515C167.662 76.4637 167.281 76.438 166.819 76.438ZM163.409 69.079H164.85V69.937H168.832V69.079H170.284V72.94H163.409V69.079ZM164.85 71.026V71.796H168.832V71.026H164.85ZM172.076 74.832H181.305V76.02H172.076V74.832ZM175.948 75.239H177.411V78.99H175.948V75.239ZM173.22 72.94H180.337V74.095H173.22V72.94ZM173.22 69.189H180.238V70.333H174.672V73.204H173.22V69.189ZM174.254 71.07H180.018V72.181H174.254V71.07ZM184.384 76.647H193.613V77.835H184.384V76.647ZM188.245 74.337H189.697V77.175H188.245V74.337ZM185.088 69.618H192.854V70.795H185.088V69.618ZM185.143 73.677H192.821V74.832H185.143V73.677ZM186.474 70.586H187.937V73.809H186.474V70.586ZM190.005 70.586H191.468V73.809H190.005V70.586ZM196.495 69.926H197.694V70.564C197.694 71.2093 197.587 71.8217 197.375 72.401C197.169 72.9803 196.854 73.49 196.429 73.93C196.003 74.3627 195.464 74.6853 194.812 74.898L194.086 73.743C194.643 73.5597 195.098 73.303 195.45 72.973C195.809 72.6357 196.073 72.258 196.242 71.84C196.41 71.4147 196.495 70.9893 196.495 70.564V69.926ZM196.792 69.926H197.969V70.564C197.969 70.96 198.049 71.345 198.211 71.719C198.372 72.0857 198.621 72.4157 198.959 72.709C199.303 73.0023 199.751 73.2333 200.301 73.402L199.597 74.546C198.951 74.3553 198.42 74.062 198.002 73.666C197.591 73.2627 197.287 72.797 197.089 72.269C196.891 71.7337 196.792 71.1653 196.792 70.564V69.926ZM194.46 69.464H199.971V70.63H194.46V69.464ZM200.774 68.793H202.237V74.832H200.774V68.793ZM201.841 71.125H203.59V72.324H201.841V71.125ZM198.915 75.008C199.626 75.008 200.238 75.0887 200.752 75.25C201.265 75.404 201.661 75.6277 201.94 75.921C202.218 76.2143 202.358 76.57 202.358 76.988C202.358 77.406 202.218 77.7617 201.94 78.055C201.661 78.3557 201.265 78.583 200.752 78.737C200.238 78.8983 199.626 78.979 198.915 78.979C198.211 78.979 197.598 78.8983 197.078 78.737C196.564 78.583 196.165 78.3557 195.879 78.055C195.6 77.7617 195.461 77.406 195.461 76.988C195.461 76.57 195.6 76.2143 195.879 75.921C196.165 75.6277 196.564 75.404 197.078 75.25C197.598 75.0887 198.211 75.008 198.915 75.008ZM198.915 76.152C198.482 76.152 198.119 76.1813 197.826 76.24C197.532 76.2987 197.309 76.3903 197.155 76.515C197.001 76.6397 196.924 76.7973 196.924 76.988C196.924 77.186 197.001 77.3473 197.155 77.472C197.309 77.5967 197.532 77.692 197.826 77.758C198.119 77.8167 198.482 77.846 198.915 77.846C199.347 77.846 199.71 77.8167 200.004 77.758C200.304 77.692 200.528 77.5967 200.675 77.472C200.829 77.3473 200.906 77.186 200.906 76.988C200.906 76.7973 200.829 76.6397 200.675 76.515C200.528 76.3903 200.304 76.2987 200.004 76.24C199.71 76.1813 199.347 76.152 198.915 76.152Z" fill="black" fill-opacity="0.8"/>
<path d="M146.404 90.434H147.867V92.26H146.404V90.434ZM142.543 91.666H151.761V92.821H142.543V91.666ZM147.13 93.382C148.238 93.382 149.103 93.5397 149.726 93.855C150.357 94.163 150.672 94.6067 150.672 95.186C150.672 95.758 150.357 96.198 149.726 96.506C149.103 96.8213 148.238 96.979 147.13 96.979C146.023 96.979 145.158 96.8213 144.534 96.506C143.911 96.198 143.599 95.758 143.599 95.186C143.599 94.6067 143.911 94.163 144.534 93.855C145.158 93.5397 146.023 93.382 147.13 93.382ZM147.13 94.482C146.448 94.482 145.935 94.5407 145.59 94.658C145.246 94.768 145.073 94.944 145.073 95.186C145.073 95.428 145.246 95.6077 145.59 95.725C145.935 95.835 146.448 95.89 147.13 95.89C147.82 95.89 148.333 95.835 148.67 95.725C149.015 95.6077 149.187 95.428 149.187 95.186C149.187 94.944 149.015 94.768 148.67 94.658C148.333 94.5407 147.82 94.482 147.13 94.482ZM146.151 87.75H147.449V87.992C147.449 88.3 147.394 88.5933 147.284 88.872C147.174 89.1507 147.009 89.411 146.789 89.653C146.577 89.8877 146.309 90.1003 145.986 90.291C145.664 90.4817 145.29 90.6393 144.864 90.764C144.439 90.8813 143.966 90.9657 143.445 91.017L142.939 89.873C143.387 89.8363 143.783 89.774 144.127 89.686C144.479 89.5907 144.78 89.4807 145.029 89.356C145.286 89.2313 145.495 89.0957 145.656 88.949C145.825 88.795 145.95 88.6373 146.03 88.476C146.111 88.3147 146.151 88.1533 146.151 87.992V87.75ZM146.866 87.75H148.153V87.992C148.153 88.1533 148.194 88.3183 148.274 88.487C148.355 88.6483 148.476 88.8023 148.637 88.949C148.806 89.0957 149.019 89.2313 149.275 89.356C149.532 89.4807 149.833 89.5907 150.177 89.686C150.529 89.774 150.929 89.8363 151.376 89.873L150.87 91.017C150.342 90.9657 149.866 90.8813 149.44 90.764C149.022 90.6393 148.652 90.4853 148.329 90.302C148.007 90.1113 147.735 89.8987 147.515 89.664C147.303 89.422 147.141 89.1617 147.031 88.883C146.921 88.597 146.866 88.3 146.866 87.992V87.75ZM143.39 87.211H150.936V88.366H143.39V87.211ZM159.383 86.771H160.846V96.99H159.383V86.771ZM155.357 87.486C155.878 87.486 156.34 87.6363 156.743 87.937C157.147 88.2303 157.462 88.652 157.689 89.202C157.924 89.7447 158.041 90.3863 158.041 91.127C158.041 91.875 157.924 92.524 157.689 93.074C157.462 93.6167 157.147 94.0383 156.743 94.339C156.34 94.6323 155.878 94.779 155.357 94.779C154.844 94.779 154.386 94.6323 153.982 94.339C153.579 94.0383 153.26 93.6167 153.025 93.074C152.798 92.524 152.684 91.875 152.684 91.127C152.684 90.3863 152.798 89.7447 153.025 89.202C153.26 88.652 153.579 88.2303 153.982 87.937C154.386 87.6363 154.844 87.486 155.357 87.486ZM155.357 88.817C155.108 88.817 154.888 88.905 154.697 89.081C154.507 89.257 154.356 89.5173 154.246 89.862C154.144 90.1993 154.092 90.621 154.092 91.127C154.092 91.6257 154.144 92.051 154.246 92.403C154.356 92.7477 154.507 93.008 154.697 93.184C154.888 93.36 155.108 93.448 155.357 93.448C155.614 93.448 155.838 93.36 156.028 93.184C156.219 93.008 156.366 92.7477 156.468 92.403C156.578 92.051 156.633 91.6257 156.633 91.127C156.633 90.621 156.578 90.1993 156.468 89.862C156.366 89.5173 156.219 89.257 156.028 89.081C155.838 88.905 155.614 88.817 155.357 88.817ZM162.232 91.699H171.45V92.854H162.232V91.699ZM166.104 90.5H167.556V92.018H166.104V90.5ZM166.819 93.338C167.926 93.338 168.791 93.4993 169.415 93.822C170.038 94.1373 170.35 94.5847 170.35 95.164C170.35 95.7507 170.038 96.198 169.415 96.506C168.791 96.8213 167.926 96.979 166.819 96.979C165.719 96.979 164.853 96.8213 164.223 96.506C163.599 96.198 163.288 95.7507 163.288 95.164C163.288 94.5847 163.599 94.1373 164.223 93.822C164.853 93.4993 165.719 93.338 166.819 93.338ZM166.819 94.438C166.364 94.438 165.983 94.4637 165.675 94.515C165.374 94.5663 165.147 94.647 164.993 94.757C164.839 94.8597 164.762 94.9953 164.762 95.164C164.762 95.3253 164.839 95.461 164.993 95.571C165.147 95.6737 165.374 95.7543 165.675 95.813C165.983 95.8643 166.364 95.89 166.819 95.89C167.281 95.89 167.662 95.8643 167.963 95.813C168.263 95.7543 168.491 95.6737 168.645 95.571C168.799 95.461 168.876 95.3253 168.876 95.164C168.876 94.9953 168.799 94.8597 168.645 94.757C168.491 94.647 168.263 94.5663 167.963 94.515C167.662 94.4637 167.281 94.438 166.819 94.438ZM163.409 87.079H164.85V87.937H168.832V87.079H170.284V90.94H163.409V87.079ZM164.85 89.026V89.796H168.832V89.026H164.85ZM172.076 92.832H181.305V94.02H172.076V92.832ZM175.948 93.239H177.411V96.99H175.948V93.239ZM173.22 90.94H180.337V92.095H173.22V90.94ZM173.22 87.189H180.238V88.333H174.672V91.204H173.22V87.189ZM174.254 89.07H180.018V90.181H174.254V89.07ZM184.384 94.647H193.613V95.835H184.384V94.647ZM188.245 92.337H189.697V95.175H188.245V92.337ZM185.088 87.618H192.854V88.795H185.088V87.618ZM185.143 91.677H192.821V92.832H185.143V91.677ZM186.474 88.586H187.937V91.809H186.474V88.586ZM190.005 88.586H191.468V91.809H190.005V88.586ZM196.495 87.926H197.694V88.564C197.694 89.2093 197.587 89.8217 197.375 90.401C197.169 90.9803 196.854 91.49 196.429 91.93C196.003 92.3627 195.464 92.6853 194.812 92.898L194.086 91.743C194.643 91.5597 195.098 91.303 195.45 90.973C195.809 90.6357 196.073 90.258 196.242 89.84C196.41 89.4147 196.495 88.9893 196.495 88.564V87.926ZM196.792 87.926H197.969V88.564C197.969 88.96 198.049 89.345 198.211 89.719C198.372 90.0857 198.621 90.4157 198.959 90.709C199.303 91.0023 199.751 91.2333 200.301 91.402L199.597 92.546C198.951 92.3553 198.42 92.062 198.002 91.666C197.591 91.2627 197.287 90.797 197.089 90.269C196.891 89.7337 196.792 89.1653 196.792 88.564V87.926ZM194.46 87.464H199.971V88.63H194.46V87.464ZM200.774 86.793H202.237V92.832H200.774V86.793ZM201.841 89.125H203.59V90.324H201.841V89.125ZM198.915 93.008C199.626 93.008 200.238 93.0887 200.752 93.25C201.265 93.404 201.661 93.6277 201.94 93.921C202.218 94.2143 202.358 94.57 202.358 94.988C202.358 95.406 202.218 95.7617 201.94 96.055C201.661 96.3557 201.265 96.583 200.752 96.737C200.238 96.8983 199.626 96.979 198.915 96.979C198.211 96.979 197.598 96.8983 197.078 96.737C196.564 96.583 196.165 96.3557 195.879 96.055C195.6 95.7617 195.461 95.406 195.461 94.988C195.461 94.57 195.6 94.2143 195.879 93.921C196.165 93.6277 196.564 93.404 197.078 93.25C197.598 93.0887 198.211 93.008 198.915 93.008ZM198.915 94.152C198.482 94.152 198.119 94.1813 197.826 94.24C197.532 94.2987 197.309 94.3903 197.155 94.515C197.001 94.6397 196.924 94.7973 196.924 94.988C196.924 95.186 197.001 95.3473 197.155 95.472C197.309 95.5967 197.532 95.692 197.826 95.758C198.119 95.8167 198.482 95.846 198.915 95.846C199.347 95.846 199.71 95.8167 200.004 95.758C200.304 95.692 200.528 95.5967 200.675 95.472C200.829 95.3473 200.906 95.186 200.906 94.988C200.906 94.7973 200.829 94.6397 200.675 94.515C200.528 94.3903 200.304 94.2987 200.004 94.24C199.71 94.1813 199.347 94.152 198.915 94.152Z" fill="black" fill-opacity="0.8"/>
<path d="M260.246 55.435H260.95C261.442 55.435 261.882 55.4313 262.27 55.424C262.666 55.4093 263.04 55.3873 263.392 55.358C263.744 55.3213 264.107 55.2737 264.481 55.215L264.613 56.381C264.225 56.447 263.847 56.4983 263.48 56.535C263.114 56.5717 262.725 56.5937 262.314 56.601C261.911 56.6083 261.456 56.612 260.95 56.612H260.246V55.435ZM260.246 51.464H264.25V52.63H261.654V56.084H260.246V51.464ZM261.236 53.466H264.151V54.566H261.236V53.466ZM267.187 50.782H268.584V57.008H267.187V50.782ZM265.977 53.279H267.594V54.456H265.977V53.279ZM265.02 50.969H266.384V56.942H265.02V50.969ZM261.577 57.437H268.584V60.979H267.121V58.614H261.577V57.437ZM270.036 51.695H271.411V53.983H272.698V51.695H274.051V58.559H270.036V51.695ZM271.411 55.116V57.393H272.698V55.116H271.411ZM277.098 50.782H278.495V60.968H277.098V50.782ZM275.855 54.676H277.538V55.842H275.855V54.676ZM274.876 50.947H276.24V60.517H274.876V50.947ZM281.882 51.574H283.059V53.048C283.059 53.6787 283.004 54.2947 282.894 54.896C282.784 55.49 282.611 56.0437 282.377 56.557C282.149 57.0703 281.86 57.5287 281.508 57.932C281.156 58.328 280.741 58.6433 280.265 58.878L279.385 57.701C279.817 57.503 280.188 57.239 280.496 56.909C280.811 56.579 281.071 56.205 281.277 55.787C281.482 55.369 281.632 54.929 281.728 54.467C281.83 53.9977 281.882 53.5247 281.882 53.048V51.574ZM282.168 51.574H283.345V53.048C283.345 53.51 283.389 53.9647 283.477 54.412C283.572 54.8593 283.715 55.2847 283.906 55.688C284.104 56.084 284.349 56.4397 284.643 56.755C284.936 57.0703 285.288 57.3307 285.699 57.536L284.808 58.702C284.353 58.4673 283.957 58.1593 283.62 57.778C283.29 57.3893 283.018 56.9457 282.806 56.447C282.593 55.941 282.432 55.402 282.322 54.83C282.219 54.2507 282.168 53.6567 282.168 53.048V51.574ZM286.095 50.793H287.569V60.979H286.095V50.793ZM287.25 54.709H289.043V55.919H287.25V54.709ZM297.402 53.07H299.327V54.247H297.402V53.07ZM298.942 50.793H300.405V56.359H298.942V50.793ZM293.651 56.766H295.103V57.701H298.964V56.766H300.405V60.869H293.651V56.766ZM295.103 58.823V59.692H298.964V58.823H295.103ZM294.245 51.574H295.433V52.223C295.433 52.861 295.331 53.4697 295.125 54.049C294.92 54.6283 294.605 55.1343 294.179 55.567C293.761 55.9997 293.222 56.326 292.562 56.546L291.836 55.391C292.254 55.2443 292.614 55.061 292.914 54.841C293.222 54.621 293.472 54.368 293.662 54.082C293.86 53.796 294.007 53.4953 294.102 53.18C294.198 52.8647 294.245 52.5457 294.245 52.223V51.574ZM294.553 51.574H295.719V52.212C295.719 52.608 295.8 53.004 295.961 53.4C296.123 53.7887 296.372 54.1407 296.709 54.456C297.054 54.7713 297.494 55.0207 298.029 55.204L297.314 56.348C296.684 56.1353 296.163 55.82 295.752 55.402C295.349 54.984 295.048 54.5 294.85 53.95C294.652 53.4 294.553 52.8207 294.553 52.212V51.574ZM292.232 51.255H297.71V52.41H292.232V51.255ZM305.575 51.079H306.851V51.563C306.851 51.9517 306.788 52.3293 306.664 52.696C306.546 53.0553 306.37 53.3927 306.136 53.708C305.901 54.0233 305.615 54.3057 305.278 54.555C304.94 54.8043 304.548 55.017 304.101 55.193C303.661 55.3617 303.177 55.49 302.649 55.578L302.077 54.401C302.546 54.3423 302.964 54.2433 303.331 54.104C303.705 53.9647 304.031 53.7997 304.31 53.609C304.596 53.4183 304.83 53.2093 305.014 52.982C305.197 52.7547 305.336 52.52 305.432 52.278C305.527 52.036 305.575 51.7977 305.575 51.563V51.079ZM305.85 51.079H307.126V51.563C307.126 51.7977 307.173 52.036 307.269 52.278C307.364 52.52 307.503 52.7547 307.687 52.982C307.87 53.2093 308.101 53.4183 308.38 53.609C308.666 53.7997 308.992 53.9647 309.359 54.104C309.733 54.2433 310.154 54.3423 310.624 54.401L310.052 55.578C309.516 55.49 309.029 55.3617 308.589 55.193C308.149 55.017 307.76 54.8043 307.423 54.555C307.085 54.2983 306.799 54.0123 306.565 53.697C306.33 53.3817 306.15 53.0443 306.026 52.685C305.908 52.3257 305.85 51.9517 305.85 51.563V51.079ZM305.575 57.239H307.038V60.979H305.575V57.239ZM301.736 56.315H310.954V57.503H301.736V56.315ZM321.381 50.782H322.778V60.968H321.381V50.782ZM320.028 54.709H321.722V55.886H320.028V54.709ZM319.104 50.958H320.457V60.495H319.104V50.958ZM314.319 57.47H315.023C315.449 57.47 315.852 57.4663 316.233 57.459C316.615 57.4443 316.992 57.4187 317.366 57.382C317.748 57.338 318.136 57.283 318.532 57.217L318.653 58.405C318.243 58.4783 317.843 58.537 317.454 58.581C317.066 58.625 316.673 58.6543 316.277 58.669C315.881 58.6763 315.463 58.68 315.023 58.68H314.319V57.47ZM314.319 51.97H318.07V53.147H315.76V58.053H314.319V51.97ZM331.159 50.793H332.556V57.173H331.159V50.793ZM329.927 53.301H331.544V54.489H329.927V53.301ZM329.058 50.98H330.422V56.832H329.058V50.98ZM323.822 51.827H328.772V52.96H323.822V51.827ZM326.308 53.279C326.741 53.279 327.122 53.356 327.452 53.51C327.782 53.664 328.039 53.873 328.222 54.137C328.413 54.401 328.508 54.709 328.508 55.061C328.508 55.413 328.413 55.7247 328.222 55.996C328.039 56.26 327.782 56.469 327.452 56.623C327.122 56.7697 326.741 56.843 326.308 56.843C325.89 56.843 325.513 56.7697 325.175 56.623C324.845 56.469 324.585 56.26 324.394 55.996C324.204 55.7247 324.108 55.413 324.108 55.061C324.108 54.709 324.204 54.401 324.394 54.137C324.585 53.873 324.845 53.664 325.175 53.51C325.513 53.356 325.89 53.279 326.308 53.279ZM326.308 54.335C326.044 54.335 325.828 54.3973 325.659 54.522C325.498 54.6467 325.417 54.8263 325.417 55.061C325.417 55.2957 325.498 55.479 325.659 55.611C325.828 55.7357 326.044 55.798 326.308 55.798C326.572 55.798 326.789 55.7357 326.957 55.611C327.126 55.479 327.21 55.2957 327.21 55.061C327.21 54.8263 327.126 54.6467 326.957 54.522C326.796 54.3973 326.58 54.335 326.308 54.335ZM325.582 50.892H327.023V52.608H325.582V50.892ZM329.102 57.272C330.195 57.272 331.053 57.4333 331.676 57.756C332.3 58.0787 332.611 58.537 332.611 59.131C332.611 59.7177 332.3 60.1723 331.676 60.495C331.053 60.8177 330.195 60.979 329.102 60.979C328.01 60.979 327.152 60.8177 326.528 60.495C325.912 60.1723 325.604 59.7177 325.604 59.131C325.604 58.537 325.912 58.0787 326.528 57.756C327.152 57.4333 328.01 57.272 329.102 57.272ZM329.113 58.361C328.431 58.361 327.918 58.4233 327.573 58.548C327.229 58.6727 327.056 58.867 327.056 59.131C327.056 59.3877 327.229 59.5783 327.573 59.703C327.918 59.8277 328.431 59.89 329.113 59.89C329.781 59.89 330.283 59.8277 330.62 59.703C330.965 59.5783 331.137 59.3877 331.137 59.131C331.137 58.867 330.965 58.6727 330.62 58.548C330.283 58.4233 329.781 58.361 329.113 58.361ZM249.449 69.7383C249.449 68.7617 249.578 67.8646 249.836 67.0469C250.096 66.2266 250.483 65.4687 250.996 64.7734H252.328C252.13 65.0313 251.945 65.3477 251.773 65.7227C251.601 66.0951 251.451 66.5039 251.324 66.9492C251.199 67.3919 251.1 67.8516 251.027 68.3281C250.957 68.8047 250.921 69.2747 250.921 69.7383C250.921 70.3555 250.983 70.9805 251.105 71.6133C251.23 72.2461 251.398 72.832 251.609 73.3711C251.823 73.9128 252.062 74.3555 252.328 74.6992H250.996C250.483 74.0039 250.096 73.2474 249.836 72.4297C249.578 71.6094 249.449 70.7122 249.449 69.7383ZM252.876 69.48H262.094V70.657H252.876V69.48ZM256.715 70.25H258.178V73.979H256.715V70.25ZM257.463 64.134C258.189 64.134 258.827 64.2293 259.377 64.42C259.934 64.6033 260.367 64.8673 260.675 65.212C260.983 65.5567 261.137 65.96 261.137 66.422C261.137 66.8913 260.983 67.2983 260.675 67.643C260.367 67.9803 259.934 68.2443 259.377 68.435C258.827 68.6183 258.189 68.71 257.463 68.71C256.737 68.71 256.095 68.6183 255.538 68.435C254.988 68.2443 254.555 67.9803 254.24 67.643C253.932 67.2983 253.778 66.8913 253.778 66.422C253.778 65.96 253.932 65.5567 254.24 65.212C254.555 64.8673 254.988 64.6033 255.538 64.42C256.095 64.2293 256.737 64.134 257.463 64.134ZM257.452 65.289C257.012 65.289 256.627 65.333 256.297 65.421C255.974 65.509 255.725 65.6373 255.549 65.806C255.373 65.9673 255.285 66.1727 255.285 66.422C255.285 66.664 255.373 66.8693 255.549 67.038C255.725 67.2067 255.974 67.335 256.297 67.423C256.627 67.5037 257.012 67.544 257.452 67.544C257.906 67.544 258.295 67.5037 258.618 67.423C258.94 67.335 259.19 67.2067 259.366 67.038C259.549 66.8693 259.641 66.664 259.641 66.422C259.641 66.1727 259.549 65.9673 259.366 65.806C259.19 65.6373 258.94 65.509 258.618 65.421C258.295 65.333 257.906 65.289 257.452 65.289ZM266.867 67.643H268.473V68.831H266.867V67.643ZM264.491 66.62H265.602V66.884C265.602 67.412 265.558 67.9363 265.47 68.457C265.389 68.9703 265.257 69.458 265.074 69.92C264.898 70.3747 264.667 70.789 264.381 71.163C264.102 71.5297 263.758 71.8303 263.347 72.065L262.533 70.965C262.892 70.7523 263.197 70.4957 263.446 70.195C263.695 69.887 263.897 69.5533 264.051 69.194C264.212 68.8273 264.326 68.4497 264.392 68.061C264.458 67.665 264.491 67.2727 264.491 66.884V66.62ZM264.777 66.62H265.888V66.884C265.888 67.258 265.921 67.6357 265.987 68.017C266.06 68.3983 266.174 68.7577 266.328 69.095C266.482 69.4323 266.684 69.744 266.933 70.03C267.182 70.3087 267.487 70.5433 267.846 70.734L267.054 71.823C266.511 71.537 266.071 71.141 265.734 70.635C265.397 70.1217 265.151 69.5423 264.997 68.897C264.85 68.2443 264.777 67.5733 264.777 66.884V66.62ZM262.907 65.498H267.45V66.675H262.907V65.498ZM264.491 64.123H265.888V66.444H264.491V64.123ZM270.068 63.782H271.465V73.968H270.068V63.782ZM268.011 63.947H269.375V73.506H268.011V63.947ZM273.697 64.222H280.143V65.388H273.697V64.222ZM272.564 67.731H281.793V68.908H272.564V67.731ZM276.436 68.556H277.888V70.69H276.436V68.556ZM279.263 64.222H280.704V65.036C280.704 65.476 280.689 65.96 280.66 66.488C280.638 67.0087 280.546 67.6027 280.385 68.27L278.955 68.138C279.109 67.478 279.197 66.906 279.219 66.422C279.248 65.9307 279.263 65.4687 279.263 65.036V64.222ZM273.488 70.338H280.726V73.979H279.263V71.493H273.488V70.338ZM282.749 68.435H283.453C283.945 68.435 284.385 68.4313 284.773 68.424C285.169 68.4093 285.543 68.3873 285.895 68.358C286.247 68.3213 286.61 68.2737 286.984 68.215L287.116 69.381C286.728 69.447 286.35 69.4983 285.983 69.535C285.617 69.5717 285.228 69.5937 284.817 69.601C284.414 69.6083 283.959 69.612 283.453 69.612H282.749V68.435ZM282.749 64.464H286.753V65.63H284.157V69.084H282.749V64.464ZM283.739 66.466H286.654V67.566H283.739V66.466ZM289.69 63.782H291.087V70.008H289.69V63.782ZM288.48 66.279H290.097V67.456H288.48V66.279ZM287.523 63.969H288.887V69.942H287.523V63.969ZM284.08 70.437H291.087V73.979H289.624V71.614H284.08V70.437ZM292.538 64.695H293.913V66.983H295.2V64.695H296.553V71.559H292.538V64.695ZM293.913 68.116V70.393H295.2V68.116H293.913ZM299.6 63.782H300.997V73.968H299.6V63.782ZM298.357 67.676H300.04V68.842H298.357V67.676ZM297.378 63.947H298.742V73.517H297.378V63.947ZM304.032 71.9062L303.981 72.3359C303.945 72.6641 303.88 72.9974 303.786 73.3359C303.695 73.6771 303.599 73.9909 303.497 74.2773C303.396 74.5638 303.313 74.7891 303.251 74.9531H302.298C302.334 74.7943 302.384 74.5781 302.446 74.3047C302.511 74.0313 302.574 73.724 302.634 73.3828C302.694 73.0417 302.734 72.6953 302.755 72.3437L302.782 71.9062H304.032ZM314.458 67.6992H312.997C312.955 67.4596 312.878 67.2474 312.766 67.0625C312.654 66.875 312.515 66.7161 312.348 66.5859C312.182 66.4557 311.992 66.3581 311.778 66.293C311.567 66.2253 311.339 66.1914 311.095 66.1914C310.66 66.1914 310.274 66.3008 309.938 66.5195C309.602 66.7357 309.339 67.0534 309.149 67.4727C308.959 67.8893 308.864 68.3984 308.864 69C308.864 69.612 308.959 70.1276 309.149 70.5469C309.342 70.9635 309.605 71.2786 309.938 71.4922C310.274 71.7031 310.658 71.8086 311.091 71.8086C311.33 71.8086 311.554 71.7773 311.763 71.7148C311.973 71.6497 312.162 71.5547 312.329 71.4297C312.498 71.3047 312.64 71.151 312.755 70.9687C312.872 70.7865 312.953 70.5781 312.997 70.3437L314.458 70.3516C314.403 70.7318 314.285 71.0885 314.102 71.4219C313.923 71.7552 313.687 72.0495 313.395 72.3047C313.104 72.5573 312.763 72.7552 312.372 72.8984C311.981 73.0391 311.548 73.1094 311.071 73.1094C310.368 73.1094 309.74 72.9466 309.188 72.6211C308.636 72.2956 308.201 71.8255 307.884 71.2109C307.566 70.5964 307.407 69.8594 307.407 69C307.407 68.138 307.567 67.401 307.888 66.7891C308.208 66.1745 308.644 65.7044 309.196 65.3789C309.748 65.0534 310.373 64.8906 311.071 64.8906C311.516 64.8906 311.93 64.9531 312.313 65.0781C312.696 65.2031 313.037 65.3867 313.337 65.6289C313.636 65.8685 313.882 66.1628 314.075 66.5117C314.27 66.8581 314.398 67.2539 314.458 67.6992ZM318.666 65H320.104V70.625C320.101 71.1406 319.992 71.5846 319.776 71.957C319.559 72.3268 319.257 72.612 318.869 72.8125C318.484 73.0104 318.035 73.1094 317.522 73.1094C317.053 73.1094 316.631 73.026 316.256 72.8594C315.884 72.6901 315.588 72.4401 315.369 72.1094C315.151 71.7786 315.041 71.3672 315.041 70.875H316.483C316.485 71.0911 316.532 71.2773 316.623 71.4336C316.717 71.5898 316.846 71.7096 317.01 71.793C317.174 71.8763 317.363 71.918 317.576 71.918C317.808 71.918 318.005 71.8698 318.166 71.7734C318.328 71.6745 318.45 71.5286 318.533 71.3359C318.619 71.1432 318.664 70.9062 318.666 70.625V65ZM321.404 68.435H322.108C322.599 68.435 323.039 68.4313 323.428 68.424C323.824 68.4093 324.198 68.3873 324.55 68.358C324.902 68.3213 325.265 68.2737 325.639 68.215L325.771 69.381C325.382 69.447 325.005 69.4983 324.638 69.535C324.271 69.5717 323.883 69.5937 323.472 69.601C323.069 69.6083 322.614 69.612 322.108 69.612H321.404V68.435ZM321.404 64.464H325.408V65.63H322.812V69.084H321.404V64.464ZM322.394 66.466H325.309V67.566H322.394V66.466ZM328.345 63.782H329.742V70.008H328.345V63.782ZM327.135 66.279H328.752V67.456H327.135V66.279ZM326.178 63.969H327.542V69.942H326.178V63.969ZM322.735 70.437H329.742V73.979H328.279V71.614H322.735V70.437ZM331.193 64.695H332.568V66.983H333.855V64.695H335.208V71.559H331.193V64.695ZM332.568 68.116V70.393H333.855V68.116H332.568ZM338.255 63.782H339.652V73.968H338.255V63.782ZM337.012 67.676H338.695V68.842H337.012V67.676ZM336.033 63.947H337.397V73.517H336.033V63.947ZM343.55 69.7383C343.55 70.7122 343.42 71.6094 343.16 72.4297C342.902 73.2474 342.516 74.0039 342.003 74.6992H340.671C340.872 74.4414 341.057 74.1263 341.226 73.7539C341.398 73.3815 341.546 72.9727 341.671 72.5273C341.799 72.082 341.898 71.6211 341.968 71.1445C342.041 70.668 342.078 70.1992 342.078 69.7383C342.078 69.1211 342.015 68.4961 341.89 67.8633C341.768 67.2305 341.6 66.6432 341.386 66.1016C341.175 65.5599 340.937 65.1172 340.671 64.7734H342.003C342.516 65.4687 342.902 66.2266 343.16 67.0469C343.42 67.8646 343.55 68.7617 343.55 69.7383Z" fill="black" fill-opacity="0.8"/>
<path d="M71.8871 21.7701H64.382C64.3193 21.7701 64.2673 21.7184 64.2673 21.656V0.11412C64.2673 0.0517106 64.2154 0 64.1526 0H41.0209C40.9582 0 40.9062 0.0517106 40.9062 0.11412V27.2942C40.9062 29.6355 42.9183 31.5416 45.3925 31.5416H67.3955C69.9342 31.5416 72 29.5856 72 27.1819V21.8843C72 21.8218 71.948 21.7701 71.8853 21.7701H71.8871ZM70.409 23.2394C70.4717 23.2394 70.5237 23.2911 70.5237 23.3535V26.9572C70.5237 28.5478 69.2194 29.9422 67.6248 30.0545H67.6087C65.7687 30.1865 64.2655 28.7921 64.2655 26.9572V23.3535C64.2655 23.2911 64.3175 23.2394 64.3802 23.2394H70.409ZM42.3826 27.2942V1.58341C42.3826 1.521 42.4345 1.46929 42.4972 1.46929H62.6746C62.7373 1.46929 62.7892 1.521 62.7892 1.58341V21.8825V26.9554C62.7892 28.1573 63.255 29.2521 64.0165 30.0688H45.3925C43.7334 30.0688 42.3826 28.8224 42.3826 27.2907V27.2942Z" fill="#35339B"/>
<path d="M58.3406 6.37671H46.8527C46.445 6.37671 46.1145 6.70562 46.1145 7.11136V7.11314C46.1145 7.51887 46.445 7.84778 46.8527 7.84778H58.3406C58.7483 7.84778 59.0787 7.51887 59.0787 7.11314V7.11136C59.0787 6.70562 58.7483 6.37671 58.3406 6.37671Z" fill="#35339B"/>
<path d="M58.3406 10.6416H46.8527C46.445 10.6416 46.1145 10.9705 46.1145 11.3762V11.378C46.1145 11.7838 46.445 12.1127 46.8527 12.1127H58.3406C58.7483 12.1127 59.0787 11.7838 59.0787 11.378V11.3762C59.0787 10.9705 58.7483 10.6416 58.3406 10.6416Z" fill="#35339B"/>
<path d="M58.3406 14.907H46.8527C46.445 14.907 46.1145 15.2359 46.1145 15.6416C46.1145 16.0474 46.445 16.3763 46.8527 16.3763H58.3406C58.7483 16.3763 59.0787 16.0474 59.0787 15.6416C59.0787 15.2359 58.7483 14.907 58.3406 14.907Z" fill="#35339B"/>
<path d="M58.3406 19.1721H46.8527C46.445 19.1721 46.1145 19.501 46.1145 19.9068C46.1145 20.3125 46.445 20.6414 46.8527 20.6414H58.3406C58.7483 20.6414 59.0787 20.3125 59.0787 19.9068C59.0787 19.501 58.7483 19.1721 58.3406 19.1721Z" fill="#35339B"/>
<path d="M58.3406 23.4375H46.8527C46.445 23.4375 46.1145 23.7664 46.1145 24.1721C46.1145 24.5779 46.445 24.9068 46.8527 24.9068H58.3406C58.7483 24.9068 59.0787 24.5779 59.0787 24.1721C59.0787 23.7664 58.7483 23.4375 58.3406 23.4375Z" fill="#35339B"/>
<g clip-path="url(#clip0_118_1498)">
<path d="M306.684 26.1643L288.928 26.1492C288.999 26.4805 289.038 26.8251 289.038 27.1773C289.038 27.2777 289.034 27.3761 289.028 27.4746L306.59 27.4897C306.584 27.3875 306.579 27.2833 306.579 27.1792C306.579 26.8308 306.616 26.4919 306.684 26.1643Z" fill="#35339B"/>
<path d="M319.912 21.9459L319.622 21.8057C319.423 21.7111 319.292 21.5123 319.277 21.2907L318.156 4.81019C318.088 3.79531 317.254 3.00195 316.259 3.00195H286.192C285.44 3.00195 284.758 3.45638 284.454 4.15695L279.743 15.0215C279.697 15.1314 279.619 15.2222 279.521 15.2885L275.861 17.7348C275.322 18.0946 275 18.7024 275 19.3613V25.4999C275 26.5716 275.852 27.4425 276.901 27.4425H278.863L279.608 27.4501C279.602 27.3592 279.6 27.2683 279.6 27.1775C279.6 26.8158 279.641 26.4636 279.715 26.1247L278.87 26.1152H276.901C276.567 26.1152 276.297 25.8388 276.297 25.498V19.3594C276.297 19.1492 276.399 18.9561 276.571 18.8425L280.23 16.3962C280.538 16.1898 280.778 15.9001 280.927 15.5574L285.64 4.6928C285.736 4.46937 285.953 4.32547 286.192 4.32547H316.257C316.574 4.32547 316.839 4.5773 316.861 4.90108L317.982 21.3816C318.03 22.0822 318.445 22.7032 319.066 23.0043L319.357 23.1444C319.566 23.2467 319.703 23.4644 319.703 23.703V25.5661C319.703 25.907 319.433 26.1834 319.099 26.1834H315.914C315.981 26.5053 316.016 26.8385 316.016 27.1793C316.016 27.2911 316.011 27.4009 316.003 27.5107H319.099C320.148 27.5088 321 26.6359 321 25.5661V23.703C321 22.9551 320.572 22.2659 319.912 21.9459Z" fill="#35339B"/>
<path d="M288.928 26.1493C288.465 23.9832 286.575 22.3567 284.319 22.3567C282.062 22.3567 280.186 23.9718 279.715 26.1265C279.641 26.4655 279.6 26.8176 279.6 27.1793C279.6 27.2702 279.604 27.3611 279.608 27.4519C279.746 29.9854 281.805 32.0019 284.317 32.0019C286.829 32.0019 288.875 29.9967 289.025 27.4766C289.03 27.3781 289.034 27.2796 289.034 27.1793C289.034 26.8271 288.995 26.4825 288.925 26.1512L288.928 26.1493ZM284.321 30.8961C282.314 30.8961 280.684 29.228 280.684 27.1793C280.684 25.1306 282.316 23.4625 284.321 23.4625C286.325 23.4625 287.958 25.1306 287.958 27.1793C287.958 29.228 286.325 30.8961 284.321 30.8961Z" fill="#35339B"/>
<path d="M286.757 27.1793C286.757 25.8046 285.664 24.6875 284.319 24.6875C282.974 24.6875 281.881 25.8046 281.881 27.1793C281.881 28.5539 282.974 29.671 284.319 29.671C285.664 29.671 286.757 28.5539 286.757 27.1793ZM284.321 28.5331C283.589 28.5331 282.994 27.9253 282.994 27.1774C282.994 26.4295 283.589 25.8217 284.321 25.8217C285.053 25.8217 285.647 26.4295 285.647 27.1774C285.647 27.9253 285.053 28.5331 284.321 28.5331Z" fill="#35339B"/>
<path d="M315.914 26.1852C315.464 24.0021 313.565 22.3567 311.297 22.3567C309.03 22.3567 307.142 23.9907 306.684 26.1644C306.616 26.492 306.579 26.8309 306.579 27.1793C306.579 27.2834 306.582 27.3876 306.59 27.4898C306.747 30.0043 308.798 32 311.297 32C313.797 32 315.836 30.0138 316.003 27.5088C316.011 27.3989 316.016 27.2891 316.016 27.1774C316.016 26.8366 315.981 26.5052 315.914 26.1833V26.1852ZM311.297 30.8961C309.291 30.8961 307.661 29.228 307.661 27.1793C307.661 25.1306 309.293 23.4625 311.297 23.4625C313.302 23.4625 314.934 25.1306 314.934 27.1793C314.934 29.228 313.302 30.8961 311.297 30.8961Z" fill="#35339B"/>
<path d="M313.734 27.1793C313.734 25.8046 312.641 24.6875 311.296 24.6875C309.95 24.6875 308.857 25.8046 308.857 27.1793C308.857 28.5539 309.95 29.671 311.296 29.671C312.641 29.671 313.734 28.5539 313.734 27.1793ZM311.297 28.5331C310.566 28.5331 309.971 27.9253 309.971 27.1774C309.971 26.4295 310.566 25.8217 311.297 25.8217C312.029 25.8217 312.624 26.4295 312.624 27.1774C312.624 27.9253 312.029 28.5331 311.297 28.5331Z" fill="#35339B"/>
<path d="M284.834 15.1483H291.153C291.737 15.1483 292.211 14.6636 292.211 14.0672V8.01573C292.211 7.41929 291.737 6.93457 291.153 6.93457H287.105C286.67 6.93457 286.273 7.21291 286.118 7.62757L283.846 13.679C283.722 14.0104 283.765 14.3853 283.961 14.6788C284.158 14.9722 284.484 15.1464 284.832 15.1464L284.834 15.1483ZM291.1 8.07253V14.0123H284.913L287.142 8.07253H291.098H291.1Z" fill="#35339B"/>
<path d="M297.786 20.0182C297.921 20.3931 298.329 20.5862 298.698 20.448L299.122 20.289H311.961V19.4502H301.347L304.446 18.2819V18.3065H310.76V17.4772H306.581L308.509 16.7501H314.23V15.9208H310.684C311.001 15.756 311.155 15.3755 311.031 15.0271L310.562 13.7301H314.025V12.9007H310.264L309.593 11.0414H315.709V10.212H309.293L308.658 8.45303C308.522 8.07813 308.115 7.885 307.746 8.02322L307.118 8.2599L296.196 12.3763L295.831 12.5126C295.465 12.6508 295.276 13.0674 295.411 13.4442L297.782 20.0182H297.786ZM306.247 9.80117L303.448 13.8721C303.292 14.0557 303.053 14.1466 302.818 14.1106L298.103 12.8704L306.247 9.80117ZM303.257 15.3262C303.492 15.3622 303.731 15.2732 303.887 15.0877L307.887 9.60046L309.847 15.0328L298.69 19.2381L296.73 13.8058L303.257 15.3262Z" fill="#35339B"/>
</g>
<g clip-path="url(#clip1_118_1498)">
<path d="M174.24 29.0582C174.161 29.0839 174.08 29.025 174.08 28.9433V11.8488C174.08 11.7959 174.113 11.749 174.163 11.7339L181.622 9.27516L181.73 9.23886L189.737 6.60021C189.816 6.57451 189.897 6.63348 189.897 6.71513V10.9173C189.897 11.0988 189.985 11.2696 190.132 11.377C190.506 11.6462 191.028 11.38 191.028 10.9188V6.16472V5.513C191.028 5.43739 190.978 5.37086 190.905 5.34818L190.394 5.19092C190.312 5.1894 173.561 -0.0183423 173.429 -0.000196832C173.34 0.0270214 156.583 5.17731 156.583 5.17731L156.086 5.33003C156.035 5.34515 156 5.39354 156 5.44646V24.6277C156 24.6806 156.033 24.7275 156.083 24.7426L172.948 30.3012L173.476 30.4751C173.5 30.4827 173.527 30.4827 173.552 30.4751L174.08 30.3012C174.08 30.3012 177.424 29.1989 180.939 28.0406C181.301 27.9211 181.44 27.4841 181.214 27.1772L181.207 27.1666C181.063 26.973 180.812 26.8929 180.583 26.9685L174.242 29.0582H174.24ZM173.494 1.18228C173.494 1.18228 173.494 1.18228 173.496 1.18228L188.181 5.69596C188.287 5.72923 188.289 5.87742 188.183 5.9122C188.165 5.91825 185.147 6.91322 181.849 8.00044C181.847 8.00044 181.846 8.00044 181.844 8.00044L167.777 2.92727C167.777 2.92727 167.771 2.91517 167.777 2.91215C170.802 1.97917 173.435 1.17321 173.494 1.18228ZM172.948 28.9539C172.948 29.031 172.872 29.087 172.798 29.0628L157.209 23.9246C157.162 23.9095 157.13 23.8656 157.13 23.8157V6.55939C157.13 6.55939 157.135 6.55031 157.141 6.55183L172.943 11.7596C172.943 11.7596 172.948 11.7626 172.949 11.7656C172.966 12.0877 172.937 28.9433 172.949 28.9539H172.948ZM173.462 10.7661C173.462 10.7661 173.461 10.7661 173.459 10.7661L158.739 5.91371C158.633 5.87893 158.634 5.72923 158.74 5.69748C158.784 5.69596 161.927 4.72216 165.3 3.67879H165.306L179.447 8.77918C179.455 8.7822 179.453 8.79128 179.447 8.7943C176.318 9.82557 173.532 10.7434 173.464 10.7661H173.462Z" fill="#353395"/>
<path d="M195.357 14.099C193.756 14.099 192.27 13.786 191.027 13.2537C190.623 13.0798 190.244 12.8847 189.897 12.667C189.39 12.3479 188.947 11.9865 188.587 11.5904C188.463 11.4543 188.252 11.4497 188.125 11.5828C186.686 13.0889 184.02 14.099 180.968 14.099C180.927 14.099 180.887 14.099 180.847 14.099C180.671 14.0975 180.527 14.2396 180.527 14.415V22.0966C180.527 23.766 181.066 25.3582 182.019 26.6662C182.258 26.9943 182.526 27.3043 182.817 27.5931C183.253 28.0271 183.743 28.4157 184.282 28.7408L187.827 30.879C188.095 31.0408 188.431 31.0408 188.7 30.879L192.243 28.7439C194.574 27.3376 196 24.8139 196 22.092V14.412C196 14.2351 195.855 14.0899 195.678 14.0959C195.572 14.099 195.464 14.1005 195.357 14.1005V14.099ZM193.819 18.4433L191.027 21.2332L189.897 22.3627L187.53 24.7277C187.53 24.7277 187.523 24.7307 187.52 24.7277L183.52 20.8884C183.227 20.6056 183.168 20.1369 183.424 19.8208C183.713 19.464 184.238 19.4352 184.562 19.7467L187.497 22.5638C187.497 22.5638 187.505 22.5669 187.508 22.5638L189.896 20.1777L191.026 19.0481L192.724 17.3515C193.025 17.0491 193.515 17.0491 193.816 17.3515C194.119 17.6525 194.119 18.1424 193.816 18.4433H193.819Z" fill="#353395"/>
</g>
<path d="M111 24L120.104 16.2619C120.573 15.8626 120.573 15.1374 120.104 14.7381L111 7" stroke="#35339B" stroke-width="2.5" stroke-linecap="round"/>
<path d="M235 24L244.104 16.2619C244.573 15.8626 244.573 15.1374 244.104 14.7381L235 7" stroke="#35339B" stroke-width="2.5" stroke-linecap="round"/>
<defs>
<clipPath id="clip0_118_1498">
<rect width="46" height="29" fill="white" transform="translate(275 3)"/>
</clipPath>
<clipPath id="clip1_118_1498">
<rect width="40" height="31" fill="white" transform="translate(156)"/>
</clipPath>
</defs>
</svg>
