<svg width="321" height="75" viewBox="0 0 321 75" fill="none" xmlns="http://www.w3.org/2000/svg">
<path d="M4.24542 51.915H5.52142V52.223C5.52142 52.575 5.46275 52.916 5.34542 53.246C5.23542 53.576 5.06675 53.884 4.83942 54.17C4.61209 54.4487 4.33342 54.7017 4.00342 54.929C3.68075 55.149 3.30675 55.336 2.88142 55.49C2.45609 55.644 1.98309 55.754 1.46242 55.82L0.923421 54.687C1.37809 54.6283 1.78142 54.5403 2.13342 54.423C2.49275 54.2983 2.80442 54.1553 3.06842 53.994C3.33242 53.8253 3.55242 53.6457 3.72842 53.455C3.90442 53.2643 4.03275 53.0627 4.11342 52.85C4.20142 52.6373 4.24542 52.4283 4.24542 52.223V51.915ZM4.67442 51.915H5.93942V52.223C5.93942 52.4283 5.97975 52.6373 6.06042 52.85C6.14842 53.0627 6.28042 53.2643 6.45642 53.455C6.63242 53.6457 6.85242 53.8253 7.11642 53.994C7.38776 54.1553 7.69942 54.2983 8.05142 54.423C8.40342 54.5403 8.80675 54.6283 9.26142 54.687L8.72242 55.82C8.20175 55.754 7.72875 55.644 7.30342 55.49C6.87809 55.336 6.50042 55.149 6.17042 54.929C5.84775 54.7017 5.57275 54.4487 5.34542 54.17C5.12542 53.884 4.95675 53.576 4.83942 53.246C4.72942 52.916 4.67442 52.575 4.67442 52.223V51.915ZM4.32242 57.25H5.78542V60.979H4.32242V57.25ZM0.483421 56.403H9.70142V57.58H0.483421V56.403ZM1.29742 51.31H8.85442V52.465H1.29742V51.31ZM10.3276 58.592H19.5566V59.78H10.3276V58.592ZM14.1556 56.326H15.6186V58.911H14.1556V56.326ZM14.1116 51.354H15.3876V52.091C15.3876 52.5237 15.3252 52.9417 15.2006 53.345C15.0832 53.7483 14.9036 54.1297 14.6616 54.489C14.4269 54.8483 14.1372 55.1747 13.7926 55.468C13.4479 55.754 13.0519 55.9997 12.6046 56.205C12.1646 56.4103 11.6769 56.5607 11.1416 56.656L10.5366 55.435C11.0059 55.3617 11.4276 55.2443 11.8016 55.083C12.1756 54.9217 12.5056 54.731 12.7916 54.511C13.0849 54.2837 13.3269 54.038 13.5176 53.774C13.7156 53.5027 13.8622 53.224 13.9576 52.938C14.0602 52.652 14.1116 52.3697 14.1116 52.091V51.354ZM14.3866 51.354H15.6736V52.091C15.6736 52.377 15.7212 52.663 15.8166 52.949C15.9192 53.235 16.0659 53.51 16.2566 53.774C16.4546 54.038 16.6966 54.2837 16.9826 54.511C17.2686 54.731 17.5986 54.9217 17.9726 55.083C18.3539 55.2443 18.7756 55.3617 19.2376 55.435L18.6326 56.656C18.0972 56.5533 17.6096 56.403 17.1696 56.205C16.7296 55.9997 16.3372 55.754 15.9926 55.468C15.6479 55.182 15.3546 54.863 15.1126 54.511C14.8779 54.1517 14.6982 53.7703 14.5736 53.367C14.4489 52.9563 14.3866 52.531 14.3866 52.091V51.354ZM27.5307 50.782H28.9167V60.968H27.5307V50.782ZM23.6587 54.5H26.0237V55.677H23.6587V54.5ZM25.4187 50.969H26.7827V60.528H25.4187V50.969ZM20.4577 57.514H21.1727C21.6494 57.514 22.082 57.5067 22.4707 57.492C22.8667 57.4773 23.2407 57.4517 23.5927 57.415C23.952 57.3783 24.315 57.3233 24.6817 57.25L24.8027 58.438C24.4214 58.5187 24.0474 58.5773 23.6807 58.614C23.314 58.6507 22.9254 58.6763 22.5147 58.691C22.1114 58.7057 21.664 58.713 21.1727 58.713H20.4577V57.514ZM20.4577 51.937H24.3517V53.092H21.8987V58.02H20.4577V51.937ZM37.0008 50.771H38.4638V60.99H37.0008V50.771ZM32.9748 51.486C33.4955 51.486 33.9575 51.6363 34.3608 51.937C34.7642 52.2303 35.0795 52.652 35.3068 53.202C35.5415 53.7447 35.6588 54.3863 35.6588 55.127C35.6588 55.875 35.5415 56.524 35.3068 57.074C35.0795 57.6167 34.7642 58.0383 34.3608 58.339C33.9575 58.6323 33.4955 58.779 32.9748 58.779C32.4615 58.779 32.0032 58.6323 31.5998 58.339C31.1965 58.0383 30.8775 57.6167 30.6428 57.074C30.4155 56.524 30.3018 55.875 30.3018 55.127C30.3018 54.3863 30.4155 53.7447 30.6428 53.202C30.8775 52.652 31.1965 52.2303 31.5998 51.937C32.0032 51.6363 32.4615 51.486 32.9748 51.486ZM32.9748 52.817C32.7255 52.817 32.5055 52.905 32.3148 53.081C32.1242 53.257 31.9738 53.5173 31.8638 53.862C31.7612 54.1993 31.7098 54.621 31.7098 55.127C31.7098 55.6257 31.7612 56.051 31.8638 56.403C31.9738 56.7477 32.1242 57.008 32.3148 57.184C32.5055 57.36 32.7255 57.448 32.9748 57.448C33.2315 57.448 33.4552 57.36 33.6458 57.184C33.8365 57.008 33.9832 56.7477 34.0858 56.403C34.1958 56.051 34.2508 55.6257 34.2508 55.127C34.2508 54.621 34.1958 54.1993 34.0858 53.862C33.9832 53.5173 33.8365 53.257 33.6458 53.081C33.4552 52.905 33.2315 52.817 32.9748 52.817ZM46.944 50.771H48.407V60.99H46.944V50.771ZM45.195 54.368H47.12V55.556H45.195V54.368ZM40.311 57.514H41.136C41.7007 57.514 42.2213 57.5067 42.698 57.492C43.182 57.4773 43.6513 57.4517 44.106 57.415C44.5607 57.3783 45.0263 57.327 45.503 57.261L45.646 58.416C45.1547 58.4967 44.6707 58.5553 44.194 58.592C43.7247 58.6287 43.2407 58.6543 42.742 58.669C42.2433 58.6837 41.708 58.691 41.136 58.691H40.311V57.514ZM40.311 51.629H45.03V52.817H41.774V57.877H40.311V51.629ZM41.433 54.467H44.689V55.611H41.433V54.467ZM52.6086 51.53H56.9646V52.696H52.6086V51.53ZM53.8626 53.906H55.3036V56.447H53.8626V53.906ZM56.3926 51.53H57.8336V52.168C57.8336 52.5273 57.8226 52.9563 57.8006 53.455C57.786 53.9463 57.7163 54.5147 57.5916 55.16L56.1726 54.995C56.2826 54.3717 56.345 53.8327 56.3596 53.378C56.3816 52.9233 56.3926 52.52 56.3926 52.168V51.53ZM58.8126 50.782H60.2866V58.405H58.8126V50.782ZM59.7036 53.895H61.5076V55.094H59.7036V53.895ZM53.4886 59.626H60.6166V60.803H53.4886V59.626ZM53.4886 57.734H54.9626V59.989H53.4886V57.734ZM52.1356 57.052L52.0036 55.886C52.5903 55.886 53.2393 55.8823 53.9506 55.875C54.662 55.8603 55.388 55.831 56.1286 55.787C56.8693 55.7357 57.5806 55.6623 58.2626 55.567L58.3616 56.612C57.6576 56.7367 56.939 56.832 56.2056 56.898C55.4723 56.9567 54.7573 56.997 54.0606 57.019C53.364 57.0337 52.7223 57.0447 52.1356 57.052ZM69.0088 50.771H70.4828V60.99H69.0088V50.771ZM62.5518 57.426H63.4538C64.0551 57.426 64.6234 57.4187 65.1588 57.404C65.6941 57.382 66.2184 57.349 66.7318 57.305C67.2451 57.2537 67.7694 57.1803 68.3048 57.085L68.4588 58.262C67.6374 58.4087 66.8271 58.5077 66.0278 58.559C65.2358 58.603 64.3778 58.625 63.4538 58.625H62.5518V57.426ZM62.5298 51.64H67.3368V55.589H64.0368V57.877H62.5518V54.434H65.8518V52.817H62.5298V51.64ZM74.8054 51.398H79.7444V55.699H74.8054V51.398ZM78.3144 52.542H76.2464V54.566H78.3144V52.542ZM81.2954 50.793H82.7584V56.568H81.2954V50.793ZM78.5674 57.866H79.8214V58.009C79.8214 58.3683 79.7334 58.713 79.5574 59.043C79.3888 59.3657 79.1321 59.6627 78.7874 59.934C78.4501 60.198 78.0321 60.418 77.5334 60.594C77.0348 60.77 76.4591 60.8873 75.8064 60.946L75.3444 59.857C75.7844 59.813 76.1768 59.747 76.5214 59.659C76.8734 59.571 77.1778 59.4647 77.4344 59.34C77.6984 59.2153 77.9111 59.0797 78.0724 58.933C78.2411 58.779 78.3658 58.625 78.4464 58.471C78.5271 58.3097 78.5674 58.1557 78.5674 58.009V57.866ZM78.8204 57.866H80.0854V58.009C80.0854 58.185 80.1478 58.372 80.2724 58.57C80.4044 58.7607 80.5988 58.944 80.8554 59.12C81.1194 59.296 81.4531 59.45 81.8564 59.582C82.2671 59.714 82.7474 59.8057 83.2974 59.857L82.8244 60.946C82.1718 60.8873 81.5961 60.7663 81.0974 60.583C80.5988 60.407 80.1808 60.1833 79.8434 59.912C79.5061 59.6407 79.2494 59.3437 79.0734 59.021C78.9048 58.6983 78.8204 58.361 78.8204 58.009V57.866ZM75.7404 57.107H82.9014V58.207H75.7404V57.107ZM78.5784 56.282H80.0744V57.624H78.5784V56.282ZM36.3414 68.974H37.7934V70.437H36.3414V68.974ZM32.4914 68.116H41.6544V69.183H32.4914V68.116ZM36.3304 63.782H37.7934V65.003H36.3304V63.782ZM36.2424 65.069H37.5294V65.278C37.5294 65.6447 37.4377 65.9783 37.2544 66.279C37.071 66.5723 36.7997 66.8327 36.4404 67.06C36.081 67.28 35.6337 67.4597 35.0984 67.599C34.563 67.731 33.9434 67.8153 33.2394 67.852L32.8324 66.774C33.4557 66.7447 33.9837 66.686 34.4164 66.598C34.849 66.5027 35.1974 66.389 35.4614 66.257C35.7327 66.1177 35.9307 65.9637 36.0554 65.795C36.18 65.6263 36.2424 65.454 36.2424 65.278V65.069ZM36.5944 65.069H37.8814V65.278C37.8814 65.454 37.94 65.6263 38.0574 65.795C38.182 65.9637 38.38 66.1177 38.6514 66.257C38.9227 66.389 39.2747 66.5027 39.7074 66.598C40.1474 66.686 40.6754 66.7447 41.2914 66.774L40.8844 67.852C40.1804 67.8153 39.5607 67.731 39.0254 67.599C38.49 67.4597 38.0427 67.28 37.6834 67.06C37.324 66.8327 37.0527 66.5723 36.8694 66.279C36.686 65.9783 36.5944 65.6447 36.5944 65.278V65.069ZM33.3384 64.574H40.7854V65.641H33.3384V64.574ZM33.5144 69.799H40.5544V72.318H34.9774V73.286H33.5254V71.339H39.1134V70.844H33.5144V69.799ZM33.5254 72.846H40.8294V73.913H33.5254V72.846ZM42.6985 68.633H43.4685C44.1065 68.633 44.6528 68.6293 45.1075 68.622C45.5695 68.6073 45.9912 68.5817 46.3725 68.545C46.7538 68.5083 47.1315 68.457 47.5055 68.391L47.6595 69.557C47.3588 69.6083 47.0618 69.6523 46.7685 69.689C46.4825 69.7257 46.1745 69.7513 45.8445 69.766C45.5218 69.7807 45.1662 69.7917 44.7775 69.799C44.3962 69.8063 43.9598 69.81 43.4685 69.81H42.6985V68.633ZM42.6765 64.365H47.1535V67.577H44.1505V69.414H42.6985V66.488H45.7125V65.531H42.6765V64.365ZM49.3645 63.793H50.8385V70.074H49.3645V63.793ZM47.7365 65.201H49.6395V66.367H47.7365V65.201ZM47.7365 67.368H49.6395V68.534H47.7365V67.368ZM43.8535 70.536H50.8385V73.979H49.3645V71.691H43.8535V70.536Z" fill="black" fill-opacity="0.8"/>
<path d="M116.746 55.699H125.964V56.854H116.746V55.699ZM120.618 54.5H122.07V56.018H120.618V54.5ZM121.333 57.338C122.44 57.338 123.305 57.4993 123.929 57.822C124.552 58.1373 124.864 58.5847 124.864 59.164C124.864 59.7507 124.552 60.198 123.929 60.506C123.305 60.8213 122.44 60.979 121.333 60.979C120.233 60.979 119.367 60.8213 118.737 60.506C118.113 60.198 117.802 59.7507 117.802 59.164C117.802 58.5847 118.113 58.1373 118.737 57.822C119.367 57.4993 120.233 57.338 121.333 57.338ZM121.333 58.438C120.878 58.438 120.497 58.4637 120.189 58.515C119.888 58.5663 119.661 58.647 119.507 58.757C119.353 58.8597 119.276 58.9953 119.276 59.164C119.276 59.3253 119.353 59.461 119.507 59.571C119.661 59.6737 119.888 59.7543 120.189 59.813C120.497 59.8643 120.878 59.89 121.333 59.89C121.795 59.89 122.176 59.8643 122.477 59.813C122.777 59.7543 123.005 59.6737 123.159 59.571C123.313 59.461 123.39 59.3253 123.39 59.164C123.39 58.9953 123.313 58.8597 123.159 58.757C123.005 58.647 122.777 58.5663 122.477 58.515C122.176 58.4637 121.795 58.438 121.333 58.438ZM117.923 51.079H119.364V51.937H123.346V51.079H124.798V54.94H117.923V51.079ZM119.364 53.026V53.796H123.346V53.026H119.364ZM126.59 56.832H135.819V58.02H126.59V56.832ZM130.462 57.239H131.925V60.99H130.462V57.239ZM127.734 54.94H134.851V56.095H127.734V54.94ZM127.734 51.189H134.752V52.333H129.186V55.204H127.734V51.189ZM128.768 53.07H134.532V54.181H128.768V53.07ZM140.515 54.533H142.187V55.71H140.515V54.533ZM143.793 50.782H145.19V60.968H143.793V50.782ZM141.725 50.947H143.089V60.517H141.725V50.947ZM138.733 51.497C139.18 51.497 139.569 51.6473 139.899 51.948C140.236 52.2413 140.493 52.6667 140.669 53.224C140.852 53.774 140.944 54.434 140.944 55.204C140.944 55.9667 140.852 56.6267 140.669 57.184C140.493 57.7413 140.236 58.1703 139.899 58.471C139.569 58.7643 139.177 58.911 138.722 58.911C138.282 58.911 137.893 58.7643 137.556 58.471C137.226 58.1703 136.969 57.7413 136.786 57.184C136.61 56.6267 136.522 55.9667 136.522 55.204C136.522 54.434 136.61 53.774 136.786 53.224C136.969 52.6667 137.226 52.2413 137.556 51.948C137.893 51.6473 138.286 51.497 138.733 51.497ZM138.733 52.883C138.55 52.883 138.392 52.9673 138.26 53.136C138.128 53.3047 138.025 53.5613 137.952 53.906C137.886 54.2433 137.853 54.676 137.853 55.204C137.853 55.7173 137.886 56.1463 137.952 56.491C138.025 56.8357 138.128 57.096 138.26 57.272C138.392 57.4407 138.55 57.525 138.733 57.525C138.916 57.525 139.074 57.4407 139.206 57.272C139.345 57.096 139.448 56.8357 139.514 56.491C139.58 56.1463 139.613 55.7173 139.613 55.204C139.613 54.676 139.58 54.2433 139.514 53.906C139.448 53.5613 139.345 53.3047 139.206 53.136C139.074 52.9673 138.916 52.883 138.733 52.883ZM155.739 50.793H157.202V58.108H155.739V50.793ZM150.415 59.626H157.466V60.803H150.415V59.626ZM150.415 57.382H151.878V60.11H150.415V57.382ZM151.658 51.442C152.178 51.442 152.648 51.552 153.066 51.772C153.484 51.992 153.814 52.2963 154.056 52.685C154.305 53.0737 154.43 53.521 154.43 54.027C154.43 54.5183 154.305 54.962 154.056 55.358C153.814 55.7467 153.484 56.0547 153.066 56.282C152.648 56.502 152.178 56.612 151.658 56.612C151.137 56.612 150.668 56.502 150.25 56.282C149.832 56.0547 149.498 55.7467 149.249 55.358C149.007 54.962 148.886 54.5183 148.886 54.027C148.886 53.521 149.007 53.0737 149.249 52.685C149.498 52.2963 149.832 51.992 150.25 51.772C150.668 51.552 151.137 51.442 151.658 51.442ZM151.658 52.696C151.408 52.696 151.181 52.751 150.976 52.861C150.77 52.9637 150.609 53.114 150.492 53.312C150.374 53.5027 150.316 53.741 150.316 54.027C150.316 54.2983 150.374 54.533 150.492 54.731C150.609 54.9217 150.77 55.072 150.976 55.182C151.181 55.2847 151.408 55.336 151.658 55.336C151.907 55.336 152.134 55.2847 152.34 55.182C152.545 55.072 152.706 54.9217 152.824 54.731C152.941 54.533 153 54.2983 153 54.027C153 53.741 152.941 53.5027 152.824 53.312C152.706 53.114 152.545 52.9637 152.34 52.861C152.134 52.751 151.907 52.696 151.658 52.696ZM160.446 55.897H161.832V58.097H160.446V55.897ZM158.631 58.9L158.455 57.712C158.792 57.712 159.17 57.712 159.588 57.712C160.006 57.7047 160.442 57.6937 160.897 57.679C161.359 57.657 161.817 57.6277 162.272 57.591C162.726 57.5543 163.152 57.5067 163.548 57.448L163.625 58.526C163.082 58.636 162.506 58.7203 161.898 58.779C161.289 58.8303 160.699 58.8633 160.127 58.878C159.562 58.8927 159.063 58.9 158.631 58.9ZM165.99 50.782H167.387V60.968H165.99V50.782ZM164.846 54.808H166.485V55.985H164.846V54.808ZM163.889 50.958H165.253V60.517H163.889V50.958ZM160.413 51.574H161.546V52.399C161.546 52.971 161.465 53.5137 161.304 54.027C161.142 54.5403 160.886 54.9913 160.534 55.38C160.189 55.7687 159.734 56.0693 159.17 56.282L158.444 55.171C158.913 55.0023 159.291 54.775 159.577 54.489C159.87 54.203 160.083 53.8803 160.215 53.521C160.347 53.1543 160.413 52.7803 160.413 52.399V51.574ZM160.754 51.574H161.865V52.399C161.865 52.751 161.927 53.0957 162.052 53.433C162.184 53.7703 162.385 54.0747 162.657 54.346C162.935 54.61 163.295 54.8227 163.735 54.984L163.009 56.084C162.473 55.886 162.041 55.6037 161.711 55.237C161.381 54.863 161.139 54.4303 160.985 53.939C160.831 53.4477 160.754 52.9343 160.754 52.399V51.574ZM172.292 55.677H173.744V57.107H172.292V55.677ZM168.42 54.819H177.638V55.974H168.42V54.819ZM169.564 51.09H176.472V54.28H169.564V51.09ZM175.031 52.212H170.994V53.158H175.031V52.212ZM169.476 56.612H176.516V59.23H170.939V60.121H169.487V58.207H175.075V57.69H169.476V56.612ZM169.487 59.802H176.791V60.913H169.487V59.802ZM183.006 51.244H184.216V52.025C184.216 52.685 184.113 53.3083 183.908 53.895C183.702 54.4743 183.387 54.9803 182.962 55.413C182.544 55.8457 182.012 56.172 181.367 56.392L180.597 55.248C181.169 55.0647 181.631 54.808 181.983 54.478C182.335 54.1407 182.591 53.7593 182.753 53.334C182.921 52.9087 183.006 52.4723 183.006 52.025V51.244ZM183.314 51.244H184.491V52.003C184.491 52.311 184.535 52.619 184.623 52.927C184.711 53.2277 184.846 53.5137 185.03 53.785C185.213 54.0563 185.448 54.2983 185.734 54.511C186.027 54.7237 186.375 54.896 186.779 55.028L185.998 56.161C185.389 55.9483 184.883 55.6367 184.48 55.226C184.084 54.8153 183.79 54.3313 183.6 53.774C183.409 53.2167 183.314 52.6263 183.314 52.003V51.244ZM187.274 50.793H188.737V56.414H187.274V50.793ZM188.341 52.971H190.09V54.159H188.341V52.971ZM182.093 56.832H183.545V57.734H187.296V56.832H188.737V60.869H182.093V56.832ZM183.545 58.845V59.692H187.296V58.845H183.545ZM197.569 50.793H199.032V56.26H197.569V50.793ZM192.267 56.711H193.708V57.657H197.58V56.711H199.032V60.869H192.267V56.711ZM193.708 58.779V59.703H197.58V58.779H193.708ZM193.488 51.211C194.016 51.211 194.489 51.3137 194.907 51.519C195.325 51.7243 195.655 52.0067 195.897 52.366C196.139 52.7253 196.26 53.1397 196.26 53.609C196.26 54.0783 196.139 54.4963 195.897 54.863C195.655 55.2223 195.325 55.5047 194.907 55.71C194.489 55.9153 194.016 56.018 193.488 56.018C192.96 56.018 192.487 55.9153 192.069 55.71C191.651 55.5047 191.321 55.2223 191.079 54.863C190.837 54.4963 190.716 54.0783 190.716 53.609C190.716 53.1397 190.837 52.7253 191.079 52.366C191.321 52.0067 191.651 51.7243 192.069 51.519C192.487 51.3137 192.96 51.211 193.488 51.211ZM193.488 52.41C193.231 52.41 193 52.4577 192.795 52.553C192.589 52.6483 192.428 52.7877 192.311 52.971C192.201 53.147 192.146 53.3597 192.146 53.609C192.146 53.8657 192.201 54.0857 192.311 54.269C192.428 54.445 192.589 54.5807 192.795 54.676C193 54.764 193.231 54.808 193.488 54.808C193.744 54.808 193.972 54.764 194.17 54.676C194.375 54.5807 194.536 54.445 194.654 54.269C194.771 54.0857 194.83 53.8657 194.83 53.609C194.83 53.3597 194.771 53.147 194.654 52.971C194.536 52.7877 194.375 52.6483 194.17 52.553C193.972 52.4577 193.744 52.41 193.488 52.41ZM133.393 64.398H138.332V68.699H133.393V64.398ZM136.902 65.542H134.834V67.566H136.902V65.542ZM139.883 63.793H141.346V69.568H139.883V63.793ZM137.155 70.866H138.409V71.009C138.409 71.3683 138.321 71.713 138.145 72.043C137.976 72.3657 137.72 72.6627 137.375 72.934C137.038 73.198 136.62 73.418 136.121 73.594C135.622 73.77 135.047 73.8873 134.394 73.946L133.932 72.857C134.372 72.813 134.764 72.747 135.109 72.659C135.461 72.571 135.765 72.4647 136.022 72.34C136.286 72.2153 136.499 72.0797 136.66 71.933C136.829 71.779 136.953 71.625 137.034 71.471C137.115 71.3097 137.155 71.1557 137.155 71.009V70.866ZM137.408 70.866H138.673V71.009C138.673 71.185 138.735 71.372 138.86 71.57C138.992 71.7607 139.186 71.944 139.443 72.12C139.707 72.296 140.041 72.45 140.444 72.582C140.855 72.714 141.335 72.8057 141.885 72.857L141.412 73.946C140.759 73.8873 140.184 73.7663 139.685 73.583C139.186 73.407 138.768 73.1833 138.431 72.912C138.094 72.6407 137.837 72.3437 137.661 72.021C137.492 71.6983 137.408 71.361 137.408 71.009V70.866ZM134.328 70.107H141.489V71.207H134.328V70.107ZM137.166 69.282H138.662V70.624H137.166V69.282ZM145.174 68.699H154.392V69.854H145.174V68.699ZM149.046 67.5H150.498V69.018H149.046V67.5ZM149.761 70.338C150.868 70.338 151.733 70.4993 152.357 70.822C152.98 71.1373 153.292 71.5847 153.292 72.164C153.292 72.7507 152.98 73.198 152.357 73.506C151.733 73.8213 150.868 73.979 149.761 73.979C148.661 73.979 147.795 73.8213 147.165 73.506C146.541 73.198 146.23 72.7507 146.23 72.164C146.23 71.5847 146.541 71.1373 147.165 70.822C147.795 70.4993 148.661 70.338 149.761 70.338ZM149.761 71.438C149.306 71.438 148.925 71.4637 148.617 71.515C148.316 71.5663 148.089 71.647 147.935 71.757C147.781 71.8597 147.704 71.9953 147.704 72.164C147.704 72.3253 147.781 72.461 147.935 72.571C148.089 72.6737 148.316 72.7543 148.617 72.813C148.925 72.8643 149.306 72.89 149.761 72.89C150.223 72.89 150.604 72.8643 150.905 72.813C151.205 72.7543 151.433 72.6737 151.587 72.571C151.741 72.461 151.818 72.3253 151.818 72.164C151.818 71.9953 151.741 71.8597 151.587 71.757C151.433 71.647 151.205 71.5663 150.905 71.515C150.604 71.4637 150.223 71.438 149.761 71.438ZM146.351 64.079H147.792V64.937H151.774V64.079H153.226V67.94H146.351V64.079ZM147.792 66.026V66.796H151.774V66.026H147.792ZM162.025 63.793H163.488V69.26H162.025V63.793ZM156.723 69.711H158.164V70.657H162.036V69.711H163.488V73.869H156.723V69.711ZM158.164 71.779V72.703H162.036V71.779H158.164ZM157.944 64.211C158.472 64.211 158.945 64.3137 159.363 64.519C159.781 64.7243 160.111 65.0067 160.353 65.366C160.595 65.7253 160.716 66.1397 160.716 66.609C160.716 67.0783 160.595 67.4963 160.353 67.863C160.111 68.2223 159.781 68.5047 159.363 68.71C158.945 68.9153 158.472 69.018 157.944 69.018C157.416 69.018 156.943 68.9153 156.525 68.71C156.107 68.5047 155.777 68.2223 155.535 67.863C155.293 67.4963 155.172 67.0783 155.172 66.609C155.172 66.1397 155.293 65.7253 155.535 65.366C155.777 65.0067 156.107 64.7243 156.525 64.519C156.943 64.3137 157.416 64.211 157.944 64.211ZM157.944 65.41C157.687 65.41 157.456 65.4577 157.251 65.553C157.046 65.6483 156.884 65.7877 156.767 65.971C156.657 66.147 156.602 66.3597 156.602 66.609C156.602 66.8657 156.657 67.0857 156.767 67.269C156.884 67.445 157.046 67.5807 157.251 67.676C157.456 67.764 157.687 67.808 157.944 67.808C158.201 67.808 158.428 67.764 158.626 67.676C158.831 67.5807 158.993 67.445 159.11 67.269C159.227 67.0857 159.286 66.8657 159.286 66.609C159.286 66.3597 159.227 66.147 159.11 65.971C158.993 65.7877 158.831 65.6483 158.626 65.553C158.428 65.4577 158.201 65.41 157.944 65.41ZM169.593 64.827H170.792V65.465C170.792 66.1103 170.685 66.719 170.473 67.291C170.267 67.863 169.952 68.3653 169.527 68.798C169.109 69.2233 168.577 69.5423 167.932 69.755L167.173 68.622C167.737 68.4313 168.196 68.171 168.548 67.841C168.907 67.511 169.171 67.1407 169.34 66.73C169.508 66.312 169.593 65.8903 169.593 65.465V64.827ZM169.879 64.827H171.067V65.465C171.067 65.861 171.147 66.257 171.309 66.653C171.47 67.0417 171.723 67.3937 172.068 67.709C172.42 68.017 172.867 68.259 173.41 68.435L172.673 69.579C172.035 69.3737 171.51 69.062 171.1 68.644C170.689 68.226 170.381 67.7457 170.176 67.203C169.978 66.653 169.879 66.0737 169.879 65.465V64.827ZM167.558 64.387H173.069V65.553H167.558V64.387ZM173.872 63.793H175.335V69.92H173.872V63.793ZM174.939 66.246H176.688V67.456H174.939V66.246ZM168.537 70.371H175.335V73.979H173.872V71.537H168.537V70.371ZM182.319 66.037H184.871V67.214H182.319V66.037ZM179.976 64.211C180.489 64.211 180.947 64.3173 181.351 64.53C181.761 64.7353 182.084 65.0213 182.319 65.388C182.553 65.7473 182.671 66.1653 182.671 66.642C182.671 67.1113 182.553 67.5293 182.319 67.896C182.084 68.2627 181.761 68.5523 181.351 68.765C180.947 68.9703 180.489 69.073 179.976 69.073C179.47 69.073 179.011 68.9703 178.601 68.765C178.197 68.5523 177.878 68.2627 177.644 67.896C177.409 67.5293 177.292 67.1113 177.292 66.642C177.292 66.1653 177.409 65.7473 177.644 65.388C177.878 65.0213 178.197 64.7353 178.601 64.53C179.011 64.3173 179.47 64.211 179.976 64.211ZM179.976 65.421C179.726 65.421 179.503 65.4687 179.305 65.564C179.114 65.6593 178.964 65.7987 178.854 65.982C178.744 66.1653 178.689 66.3853 178.689 66.642C178.689 66.8913 178.744 67.1077 178.854 67.291C178.964 67.4743 179.114 67.6137 179.305 67.709C179.503 67.8043 179.726 67.852 179.976 67.852C180.225 67.852 180.445 67.8043 180.636 67.709C180.834 67.6137 180.988 67.4743 181.098 67.291C181.208 67.1077 181.263 66.8913 181.263 66.642C181.263 66.3853 181.208 66.1653 181.098 65.982C180.988 65.7987 180.834 65.6593 180.636 65.564C180.445 65.4687 180.225 65.421 179.976 65.421ZM184.222 63.793H185.696V69.26H184.222V63.793ZM178.931 69.711H180.383V70.668H184.244V69.711H185.696V73.869H178.931V69.711ZM180.383 71.79V72.703H184.244V71.79H180.383Z" fill="black" fill-opacity="0.8"/>
<path d="M246.905 56.48H256.123V57.657H246.905V56.48ZM250.744 57.25H252.207V60.979H250.744V57.25ZM251.492 51.134C252.218 51.134 252.856 51.2293 253.406 51.42C253.964 51.6033 254.396 51.8673 254.704 52.212C255.012 52.5567 255.166 52.96 255.166 53.422C255.166 53.8913 255.012 54.2983 254.704 54.643C254.396 54.9803 253.964 55.2443 253.406 55.435C252.856 55.6183 252.218 55.71 251.492 55.71C250.766 55.71 250.125 55.6183 249.567 55.435C249.017 55.2443 248.585 54.9803 248.269 54.643C247.961 54.2983 247.807 53.8913 247.807 53.422C247.807 52.96 247.961 52.5567 248.269 52.212C248.585 51.8673 249.017 51.6033 249.567 51.42C250.125 51.2293 250.766 51.134 251.492 51.134ZM251.481 52.289C251.041 52.289 250.656 52.333 250.326 52.421C250.004 52.509 249.754 52.6373 249.578 52.806C249.402 52.9673 249.314 53.1727 249.314 53.422C249.314 53.664 249.402 53.8693 249.578 54.038C249.754 54.2067 250.004 54.335 250.326 54.423C250.656 54.5037 251.041 54.544 251.481 54.544C251.936 54.544 252.325 54.5037 252.647 54.423C252.97 54.335 253.219 54.2067 253.395 54.038C253.579 53.8693 253.67 53.664 253.67 53.422C253.67 53.1727 253.579 52.9673 253.395 52.806C253.219 52.6373 252.97 52.509 252.647 52.421C252.325 52.333 251.936 52.289 251.481 52.289ZM260.897 54.643H262.503V55.831H260.897V54.643ZM258.521 53.62H259.632V53.884C259.632 54.412 259.588 54.9363 259.5 55.457C259.419 55.9703 259.287 56.458 259.104 56.92C258.928 57.3747 258.697 57.789 258.411 58.163C258.132 58.5297 257.787 58.8303 257.377 59.065L256.563 57.965C256.922 57.7523 257.226 57.4957 257.476 57.195C257.725 56.887 257.927 56.5533 258.081 56.194C258.242 55.8273 258.356 55.4497 258.422 55.061C258.488 54.665 258.521 54.2727 258.521 53.884V53.62ZM258.807 53.62H259.918V53.884C259.918 54.258 259.951 54.6357 260.017 55.017C260.09 55.3983 260.204 55.7577 260.358 56.095C260.512 56.4323 260.713 56.744 260.963 57.03C261.212 57.3087 261.516 57.5433 261.876 57.734L261.084 58.823C260.541 58.537 260.101 58.141 259.764 57.635C259.426 57.1217 259.181 56.5423 259.027 55.897C258.88 55.2443 258.807 54.5733 258.807 53.884V53.62ZM256.937 52.498H261.48V53.675H256.937V52.498ZM258.521 51.123H259.918V53.444H258.521V51.123ZM264.098 50.782H265.495V60.968H264.098V50.782ZM262.041 50.947H263.405V60.506H262.041V50.947ZM267.727 51.222H274.173V52.388H267.727V51.222ZM266.594 54.731H275.823V55.908H266.594V54.731ZM270.466 55.556H271.918V57.69H270.466V55.556ZM273.293 51.222H274.734V52.036C274.734 52.476 274.719 52.96 274.69 53.488C274.668 54.0087 274.576 54.6027 274.415 55.27L272.985 55.138C273.139 54.478 273.227 53.906 273.249 53.422C273.278 52.9307 273.293 52.4687 273.293 52.036V51.222ZM267.518 57.338H274.756V60.979H273.293V58.493H267.518V57.338ZM284.402 53.07H286.327V54.247H284.402V53.07ZM285.942 50.793H287.405V56.359H285.942V50.793ZM280.651 56.766H282.103V57.701H285.964V56.766H287.405V60.869H280.651V56.766ZM282.103 58.823V59.692H285.964V58.823H282.103ZM281.245 51.574H282.433V52.223C282.433 52.861 282.331 53.4697 282.125 54.049C281.92 54.6283 281.605 55.1343 281.179 55.567C280.761 55.9997 280.222 56.326 279.562 56.546L278.836 55.391C279.254 55.2443 279.614 55.061 279.914 54.841C280.222 54.621 280.472 54.368 280.662 54.082C280.86 53.796 281.007 53.4953 281.102 53.18C281.198 52.8647 281.245 52.5457 281.245 52.223V51.574ZM281.553 51.574H282.719V52.212C282.719 52.608 282.8 53.004 282.961 53.4C283.123 53.7887 283.372 54.1407 283.709 54.456C284.054 54.7713 284.494 55.0207 285.029 55.204L284.314 56.348C283.684 56.1353 283.163 55.82 282.752 55.402C282.349 54.984 282.048 54.5 281.85 53.95C281.652 53.4 281.553 52.8207 281.553 52.212V51.574ZM279.232 51.255H284.71V52.41H279.232V51.255ZM292.575 51.079H293.851V51.563C293.851 51.9517 293.788 52.3293 293.664 52.696C293.546 53.0553 293.37 53.3927 293.136 53.708C292.901 54.0233 292.615 54.3057 292.278 54.555C291.94 54.8043 291.548 55.017 291.101 55.193C290.661 55.3617 290.177 55.49 289.649 55.578L289.077 54.401C289.546 54.3423 289.964 54.2433 290.331 54.104C290.705 53.9647 291.031 53.7997 291.31 53.609C291.596 53.4183 291.83 53.2093 292.014 52.982C292.197 52.7547 292.336 52.52 292.432 52.278C292.527 52.036 292.575 51.7977 292.575 51.563V51.079ZM292.85 51.079H294.126V51.563C294.126 51.7977 294.173 52.036 294.269 52.278C294.364 52.52 294.503 52.7547 294.687 52.982C294.87 53.2093 295.101 53.4183 295.38 53.609C295.666 53.7997 295.992 53.9647 296.359 54.104C296.733 54.2433 297.154 54.3423 297.624 54.401L297.052 55.578C296.516 55.49 296.029 55.3617 295.589 55.193C295.149 55.017 294.76 54.8043 294.423 54.555C294.085 54.2983 293.799 54.0123 293.565 53.697C293.33 53.3817 293.15 53.0443 293.026 52.685C292.908 52.3257 292.85 51.9517 292.85 51.563V51.079ZM292.575 57.239H294.038V60.979H292.575V57.239ZM288.736 56.315H297.954V57.503H288.736V56.315ZM308.381 50.782H309.778V60.968H308.381V50.782ZM307.028 54.709H308.722V55.886H307.028V54.709ZM306.104 50.958H307.457V60.495H306.104V50.958ZM301.319 57.47H302.023C302.449 57.47 302.852 57.4663 303.233 57.459C303.615 57.4443 303.992 57.4187 304.366 57.382C304.748 57.338 305.136 57.283 305.532 57.217L305.653 58.405C305.243 58.4783 304.843 58.537 304.454 58.581C304.066 58.625 303.673 58.6543 303.277 58.669C302.881 58.6763 302.463 58.68 302.023 58.68H301.319V57.47ZM301.319 51.97H305.07V53.147H302.76V58.053H301.319V51.97ZM318.159 50.793H319.556V57.173H318.159V50.793ZM316.927 53.301H318.544V54.489H316.927V53.301ZM316.058 50.98H317.422V56.832H316.058V50.98ZM310.822 51.827H315.772V52.96H310.822V51.827ZM313.308 53.279C313.741 53.279 314.122 53.356 314.452 53.51C314.782 53.664 315.039 53.873 315.222 54.137C315.413 54.401 315.508 54.709 315.508 55.061C315.508 55.413 315.413 55.7247 315.222 55.996C315.039 56.26 314.782 56.469 314.452 56.623C314.122 56.7697 313.741 56.843 313.308 56.843C312.89 56.843 312.513 56.7697 312.175 56.623C311.845 56.469 311.585 56.26 311.394 55.996C311.204 55.7247 311.108 55.413 311.108 55.061C311.108 54.709 311.204 54.401 311.394 54.137C311.585 53.873 311.845 53.664 312.175 53.51C312.513 53.356 312.89 53.279 313.308 53.279ZM313.308 54.335C313.044 54.335 312.828 54.3973 312.659 54.522C312.498 54.6467 312.417 54.8263 312.417 55.061C312.417 55.2957 312.498 55.479 312.659 55.611C312.828 55.7357 313.044 55.798 313.308 55.798C313.572 55.798 313.789 55.7357 313.957 55.611C314.126 55.479 314.21 55.2957 314.21 55.061C314.21 54.8263 314.126 54.6467 313.957 54.522C313.796 54.3973 313.58 54.335 313.308 54.335ZM312.582 50.892H314.023V52.608H312.582V50.892ZM316.102 57.272C317.195 57.272 318.053 57.4333 318.676 57.756C319.3 58.0787 319.611 58.537 319.611 59.131C319.611 59.7177 319.3 60.1723 318.676 60.495C318.053 60.8177 317.195 60.979 316.102 60.979C315.01 60.979 314.152 60.8177 313.528 60.495C312.912 60.1723 312.604 59.7177 312.604 59.131C312.604 58.537 312.912 58.0787 313.528 57.756C314.152 57.4333 315.01 57.272 316.102 57.272ZM316.113 58.361C315.431 58.361 314.918 58.4233 314.573 58.548C314.229 58.6727 314.056 58.867 314.056 59.131C314.056 59.3877 314.229 59.5783 314.573 59.703C314.918 59.8277 315.431 59.89 316.113 59.89C316.781 59.89 317.283 59.8277 317.62 59.703C317.965 59.5783 318.137 59.3877 318.137 59.131C318.137 58.867 317.965 58.6727 317.62 58.548C317.283 58.4233 316.781 58.361 316.113 58.361Z" fill="black" fill-opacity="0.8"/>
<path d="M57.9809 21.7701H50.4757C50.413 21.7701 50.3611 21.7184 50.3611 21.656V0.11412C50.3611 0.0517106 50.3091 0 50.2464 0H27.1147C27.052 0 27 0.0517106 27 0.11412V27.2942C27 29.6355 29.012 31.5416 31.4862 31.5416H53.4892C56.028 31.5416 58.0937 29.5856 58.0937 27.1819V21.8843C58.0937 21.8218 58.0418 21.7701 57.9791 21.7701H57.9809ZM56.5028 23.2394C56.5655 23.2394 56.6174 23.2911 56.6174 23.3535V26.9572C56.6174 28.5478 55.3131 29.9422 53.7186 30.0545H53.7024C51.8624 30.1865 50.3593 28.7921 50.3593 26.9572V23.3535C50.3593 23.2911 50.4112 23.2394 50.4739 23.2394H56.5028ZM28.4763 27.2942V1.58341C28.4763 1.521 28.5283 1.46929 28.591 1.46929H48.7683C48.831 1.46929 48.883 1.521 48.883 1.58341V21.8825V26.9554C48.883 28.1573 49.3488 29.2521 50.1102 30.0688H31.4862C29.8272 30.0688 28.4763 28.8224 28.4763 27.2907V27.2942Z" fill="#35339B"/>
<path d="M44.4343 6.37671H32.9464C32.5387 6.37671 32.2083 6.70562 32.2083 7.11136V7.11314C32.2083 7.51887 32.5387 7.84778 32.9464 7.84778H44.4343C44.842 7.84778 45.1725 7.51887 45.1725 7.11314V7.11136C45.1725 6.70562 44.842 6.37671 44.4343 6.37671Z" fill="#35339B"/>
<path d="M44.4343 10.6416H32.9464C32.5387 10.6416 32.2083 10.9705 32.2083 11.3762V11.378C32.2083 11.7838 32.5387 12.1127 32.9464 12.1127H44.4343C44.842 12.1127 45.1725 11.7838 45.1725 11.378V11.3762C45.1725 10.9705 44.842 10.6416 44.4343 10.6416Z" fill="#35339B"/>
<path d="M44.4343 14.907H32.9464C32.5387 14.907 32.2083 15.2359 32.2083 15.6416C32.2083 16.0474 32.5387 16.3763 32.9464 16.3763H44.4343C44.842 16.3763 45.1725 16.0474 45.1725 15.6416C45.1725 15.2359 44.842 14.907 44.4343 14.907Z" fill="#35339B"/>
<path d="M44.4343 19.1721H32.9464C32.5387 19.1721 32.2083 19.501 32.2083 19.9068C32.2083 20.3125 32.5387 20.6414 32.9464 20.6414H44.4343C44.842 20.6414 45.1725 20.3125 45.1725 19.9068C45.1725 19.501 44.842 19.1721 44.4343 19.1721Z" fill="#35339B"/>
<path d="M44.4343 23.4375H32.9464C32.5387 23.4375 32.2083 23.7664 32.2083 24.1721C32.2083 24.5779 32.5387 24.9068 32.9464 24.9068H44.4343C44.842 24.9068 45.1725 24.5779 45.1725 24.1721C45.1725 23.7664 44.842 23.4375 44.4343 23.4375Z" fill="#35339B"/>
<g clip-path="url(#clip0_118_1547)">
<path d="M294.684 26.1643L276.928 26.1492C276.999 26.4805 277.038 26.8251 277.038 27.1773C277.038 27.2777 277.034 27.3761 277.028 27.4746L294.59 27.4897C294.584 27.3875 294.579 27.2833 294.579 27.1792C294.579 26.8308 294.616 26.4919 294.684 26.1643Z" fill="#35339B"/>
<path d="M307.912 21.9459L307.622 21.8057C307.423 21.7111 307.292 21.5123 307.277 21.2907L306.156 4.81019C306.088 3.79531 305.254 3.00195 304.259 3.00195H274.192C273.44 3.00195 272.758 3.45638 272.454 4.15695L267.743 15.0215C267.697 15.1314 267.619 15.2222 267.521 15.2885L263.861 17.7348C263.322 18.0946 263 18.7024 263 19.3613V25.4999C263 26.5716 263.852 27.4425 264.901 27.4425H266.863L267.608 27.4501C267.602 27.3592 267.6 27.2683 267.6 27.1775C267.6 26.8158 267.641 26.4636 267.715 26.1247L266.87 26.1152H264.901C264.567 26.1152 264.297 25.8388 264.297 25.498V19.3594C264.297 19.1492 264.399 18.9561 264.571 18.8425L268.23 16.3962C268.538 16.1898 268.778 15.9001 268.927 15.5574L273.64 4.6928C273.736 4.46937 273.953 4.32547 274.192 4.32547H304.257C304.574 4.32547 304.839 4.5773 304.861 4.90108L305.982 21.3816C306.03 22.0822 306.445 22.7032 307.066 23.0043L307.357 23.1444C307.566 23.2467 307.703 23.4644 307.703 23.703V25.5661C307.703 25.907 307.433 26.1834 307.099 26.1834H303.914C303.981 26.5053 304.016 26.8385 304.016 27.1793C304.016 27.2911 304.011 27.4009 304.003 27.5107H307.099C308.148 27.5088 309 26.6359 309 25.5661V23.703C309 22.9551 308.572 22.2659 307.912 21.9459Z" fill="#35339B"/>
<path d="M276.928 26.1493C276.465 23.9832 274.575 22.3567 272.319 22.3567C270.062 22.3567 268.186 23.9718 267.715 26.1265C267.641 26.4655 267.6 26.8176 267.6 27.1793C267.6 27.2702 267.604 27.3611 267.608 27.4519C267.746 29.9854 269.805 32.0019 272.317 32.0019C274.829 32.0019 276.875 29.9967 277.025 27.4766C277.03 27.3781 277.034 27.2796 277.034 27.1793C277.034 26.8271 276.995 26.4825 276.925 26.1512L276.928 26.1493ZM272.321 30.8961C270.314 30.8961 268.684 29.228 268.684 27.1793C268.684 25.1306 270.316 23.4625 272.321 23.4625C274.325 23.4625 275.958 25.1306 275.958 27.1793C275.958 29.228 274.325 30.8961 272.321 30.8961Z" fill="#35339B"/>
<path d="M274.757 27.1793C274.757 25.8046 273.664 24.6875 272.319 24.6875C270.974 24.6875 269.881 25.8046 269.881 27.1793C269.881 28.5539 270.974 29.671 272.319 29.671C273.664 29.671 274.757 28.5539 274.757 27.1793ZM272.321 28.5331C271.589 28.5331 270.994 27.9253 270.994 27.1774C270.994 26.4295 271.589 25.8217 272.321 25.8217C273.053 25.8217 273.647 26.4295 273.647 27.1774C273.647 27.9253 273.053 28.5331 272.321 28.5331Z" fill="#35339B"/>
<path d="M303.914 26.1852C303.464 24.0021 301.565 22.3567 299.297 22.3567C297.03 22.3567 295.142 23.9907 294.684 26.1644C294.616 26.492 294.579 26.8309 294.579 27.1793C294.579 27.2834 294.582 27.3876 294.59 27.4898C294.747 30.0043 296.798 32 299.297 32C301.797 32 303.836 30.0138 304.003 27.5088C304.011 27.3989 304.016 27.2891 304.016 27.1774C304.016 26.8366 303.981 26.5052 303.914 26.1833V26.1852ZM299.297 30.8961C297.291 30.8961 295.661 29.228 295.661 27.1793C295.661 25.1306 297.293 23.4625 299.297 23.4625C301.302 23.4625 302.934 25.1306 302.934 27.1793C302.934 29.228 301.302 30.8961 299.297 30.8961Z" fill="#35339B"/>
<path d="M301.734 27.1793C301.734 25.8046 300.641 24.6875 299.296 24.6875C297.95 24.6875 296.857 25.8046 296.857 27.1793C296.857 28.5539 297.95 29.671 299.296 29.671C300.641 29.671 301.734 28.5539 301.734 27.1793ZM299.297 28.5331C298.566 28.5331 297.971 27.9253 297.971 27.1774C297.971 26.4295 298.566 25.8217 299.297 25.8217C300.029 25.8217 300.624 26.4295 300.624 27.1774C300.624 27.9253 300.029 28.5331 299.297 28.5331Z" fill="#35339B"/>
<path d="M272.834 15.1483H279.153C279.737 15.1483 280.211 14.6636 280.211 14.0672V8.01573C280.211 7.41929 279.737 6.93457 279.153 6.93457H275.105C274.67 6.93457 274.273 7.21291 274.118 7.62757L271.846 13.679C271.722 14.0104 271.765 14.3853 271.961 14.6788C272.158 14.9722 272.484 15.1464 272.832 15.1464L272.834 15.1483ZM279.1 8.07253V14.0123H272.913L275.142 8.07253H279.098H279.1Z" fill="#35339B"/>
<path d="M285.786 20.0182C285.921 20.3931 286.329 20.5862 286.698 20.448L287.122 20.289H299.961V19.4502H289.347L292.446 18.2819V18.3065H298.76V17.4772H294.581L296.509 16.7501H302.23V15.9208H298.684C299.001 15.756 299.155 15.3755 299.031 15.0271L298.562 13.7301H302.025V12.9007H298.264L297.593 11.0414H303.709V10.212H297.293L296.658 8.45303C296.522 8.07813 296.115 7.885 295.746 8.02322L295.118 8.2599L284.196 12.3763L283.831 12.5126C283.465 12.6508 283.276 13.0674 283.411 13.4442L285.782 20.0182H285.786ZM294.247 9.80117L291.448 13.8721C291.292 14.0557 291.053 14.1466 290.818 14.1106L286.103 12.8704L294.247 9.80117ZM291.257 15.3262C291.492 15.3622 291.731 15.2732 291.887 15.0877L295.887 9.60046L297.847 15.0328L286.69 19.2381L284.73 13.8058L291.257 15.3262Z" fill="#35339B"/>
</g>
<g clip-path="url(#clip1_118_1547)">
<path d="M148 1.2115V31.7885C148 32.4575 148.521 33 149.164 33H170.836C171.479 33 172 32.4575 172 31.7885V1.2115C172 0.542486 171.479 0 170.836 0H149.164C148.521 0 148 0.542486 148 1.2115ZM153.159 4.45478L149.929 1.16351H170.079L166.879 4.45042C166.674 4.6613 166.397 4.77911 166.108 4.77911H153.926C153.639 4.77911 153.363 4.66276 153.157 4.45333L153.159 4.45478ZM153.47 5.94407H159.442V27.0559H153.434C153.145 27.0559 152.868 27.1737 152.663 27.3846L149.118 31.0264V1.96487L152.702 5.61684C152.907 5.82627 153.182 5.94262 153.47 5.94262V5.94407ZM153.892 28.2194H166.074C166.361 28.2194 166.637 28.3358 166.843 28.5452L170.072 31.8365H149.921L153.121 28.5496C153.326 28.3387 153.603 28.2209 153.892 28.2209V28.2194ZM166.531 27.0559H160.559V5.94407H166.567C166.857 5.94407 167.133 5.82627 167.339 5.61538L170.884 1.9736V31.0351L167.299 27.3832C167.094 27.1737 166.819 27.0574 166.531 27.0574V27.0559Z" fill="#353395"/>
</g>
<path d="M97 25L106.104 17.2619C106.573 16.8626 106.573 16.1374 106.104 15.7381L97 8" stroke="#35339B" stroke-width="2.5" stroke-linecap="round"/>
<path d="M221 25L230.104 17.2619C230.573 16.8626 230.573 16.1374 230.104 15.7381L221 8" stroke="#35339B" stroke-width="2.5" stroke-linecap="round"/>
<defs>
<clipPath id="clip0_118_1547">
<rect width="46" height="29" fill="white" transform="translate(263 3)"/>
</clipPath>
<clipPath id="clip1_118_1547">
<rect width="24" height="33" fill="white" transform="translate(148)"/>
</clipPath>
</defs>
</svg>
