<svg width="42" height="40" viewBox="0 0 42 40" fill="none" xmlns="http://www.w3.org/2000/svg">
<path d="M15.8366 3.41919L13.7754 6.98347L11.7142 3.41919H0V39.1276H41.7864V3.41919H15.8366Z" fill="#353395"/>
<path d="M38.6803 16.9654C37.7974 15.3282 36.539 13.8626 34.9407 12.6092C33.3617 11.3708 31.5275 10.4003 29.4889 9.72397C27.391 9.02817 25.165 8.67547 22.8726 8.67547C21.6508 8.67547 20.4481 8.7758 19.2736 8.97448C17.3964 7.71487 15.0464 7.02783 12.5717 7.02783C9.82083 7.02783 7.22392 7.87652 5.25901 9.41733C4.27741 10.1872 3.50364 11.0896 2.95868 12.0999C2.38197 13.1693 2.08936 14.3088 2.08936 15.4865C2.08936 16.6641 2.38168 17.8033 2.95868 18.873C3.50364 19.8834 4.27741 20.7858 5.25901 21.5556C5.39652 21.6636 5.53744 21.7676 5.68091 21.8684C5.67269 22.0448 5.66844 22.222 5.66844 22.3995C5.66844 24.2871 6.13826 26.115 7.06485 27.833C7.85025 29.289 8.93251 30.6091 10.2867 31.7653L9.02239 39.1274H18.56L17.9464 35.5543C19.5362 35.9322 21.1867 36.1232 22.8729 36.1232C25.1652 36.1232 27.3916 35.7705 29.4892 35.0747C31.5278 34.3987 33.362 33.4279 34.941 32.1895C36.5393 30.9361 37.7976 29.4705 38.6806 27.8333C39.6072 26.1156 40.077 24.2873 40.077 22.3998C40.077 20.5122 39.6072 18.6842 38.6806 16.9662L38.6803 16.9654ZM20.8138 15.4859C20.8138 17.0974 19.9918 18.6297 18.499 19.8C17.6379 20.4752 16.6166 20.9839 15.4992 21.306L14.0798 13.0413C15.4541 12.276 17.0031 11.685 18.6708 11.3108C20.0542 12.4622 20.8135 13.9372 20.8135 15.4856L20.8138 15.4859ZM12.0154 21.6972C10.5736 21.6248 9.2064 21.2713 8.0198 20.671C8.59084 17.7567 10.5841 15.1957 13.4368 13.4206L12.0154 21.6972ZM4.32929 15.4859C4.32929 13.8744 5.15126 12.3421 6.64408 11.1718C8.21601 9.93932 10.321 9.26048 12.5717 9.26048C13.7688 9.26048 14.9248 9.45266 15.9812 9.8178C14.0526 10.4887 12.312 11.427 10.8044 12.6092C9.20612 13.8626 7.94778 15.3282 7.06485 16.9654C6.65117 17.7324 6.32879 18.5215 6.09856 19.3278C4.95251 18.2315 4.32958 16.8888 4.32958 15.4859H4.32929ZM7.87605 23.0557C9.04252 23.5263 10.3142 23.8174 11.6352 23.9109L10.729 29.1884C9.07739 27.4472 8.04334 25.3392 7.87605 23.0557ZM22.8726 33.9462C20.9961 33.9462 19.1988 33.6803 17.5412 33.195L15.8794 23.5175C17.3671 23.1213 18.7344 22.4569 19.8847 21.555C20.8663 20.7852 21.64 19.8828 22.185 18.8725C22.7617 17.803 23.0543 16.6636 23.0543 15.4859C23.0543 14.3082 22.762 13.169 22.185 12.0993C21.9604 11.6828 21.6962 11.2851 21.3951 10.907C21.8813 10.8702 22.3741 10.8513 22.8729 10.8513C31.1555 10.8513 37.8938 16.0313 37.8938 22.3986C37.8938 28.7659 31.1555 33.9459 22.8729 33.9459L22.8726 33.9462Z" fill="white"/>
<path d="M18.8038 3.41889L20.893 0H16.7144L18.8038 3.41889Z" fill="#EA483F"/>
</svg>
