<svg width="17" height="4" viewBox="0 0 17 4" fill="none" xmlns="http://www.w3.org/2000/svg">
<path fill-rule="evenodd" clip-rule="evenodd" d="M2.67383 0.00463867C3.7784 0.00463867 4.67383 0.900069 4.67383 2.00464C4.67383 3.10921 3.7784 4.00464 2.67383 4.00464C1.56926 4.00464 0.673828 3.10921 0.673828 2.00464C0.673828 0.900069 1.56926 0.00463867 2.67383 0.00463867ZM8.67383 0.00463867C9.7784 0.00463867 10.6738 0.900069 10.6738 2.00464C10.6738 3.10921 9.7784 4.00464 8.67383 4.00464C7.56926 4.00464 6.67383 3.10921 6.67383 2.00464C6.67383 0.900069 7.56926 0.00463867 8.67383 0.00463867ZM16.6738 2.00464C16.6738 0.900069 15.7784 0.00463867 14.6738 0.00463867C13.5693 0.00463867 12.6738 0.900069 12.6738 2.00464C12.6738 3.10921 13.5693 4.00464 14.6738 4.00464C15.7784 4.00464 16.6738 3.10921 16.6738 2.00464Z" fill="black"/>
</svg>
