<svg width="66" height="18" viewBox="0 0 66 18" fill="none" xmlns="http://www.w3.org/2000/svg">
<path d="M0.820312 1.18945H4.96094C6.08073 1.18945 6.9401 1.27734 7.53906 1.45312C8.14453 1.62891 8.59701 1.88281 8.89648 2.21484C9.20247 2.54688 9.40755 2.95052 9.51172 3.42578C9.6224 3.89453 9.67773 4.6237 9.67773 5.61328V6.99023C9.67773 7.99935 9.57357 8.73503 9.36523 9.19727C9.1569 9.65951 8.77279 10.0143 8.21289 10.2617C7.65951 10.5091 6.93359 10.6328 6.03516 10.6328H4.93164V17H0.820312V1.18945ZM4.93164 3.89453V7.91797C5.04883 7.92448 5.14974 7.92773 5.23438 7.92773C5.61198 7.92773 5.8724 7.83659 6.01562 7.6543C6.16536 7.46549 6.24023 7.07812 6.24023 6.49219V5.19336C6.24023 4.65299 6.1556 4.30143 5.98633 4.13867C5.81706 3.97591 5.46549 3.89453 4.93164 3.89453ZM20.2539 10.4473C20.2539 12.0358 20.2148 13.1621 20.1367 13.8262C20.0651 14.4837 19.8307 15.0859 19.4336 15.6328C19.043 16.1797 18.5124 16.5996 17.8418 16.8926C17.1712 17.1855 16.39 17.332 15.498 17.332C14.6517 17.332 13.89 17.1953 13.2129 16.9219C12.5423 16.6419 12.002 16.2253 11.5918 15.6719C11.1816 15.1185 10.9375 14.5163 10.8594 13.8652C10.7812 13.2142 10.7422 12.0749 10.7422 10.4473V7.74219C10.7422 6.15365 10.778 5.0306 10.8496 4.37305C10.9277 3.70898 11.1621 3.10352 11.5527 2.55664C11.9499 2.00977 12.4837 1.58984 13.1543 1.29688C13.8249 1.00391 14.6061 0.857422 15.498 0.857422C16.3444 0.857422 17.1029 0.997396 17.7734 1.27734C18.4505 1.55078 18.9941 1.96419 19.4043 2.51758C19.8145 3.07096 20.0586 3.67318 20.1367 4.32422C20.2148 4.97526 20.2539 6.11458 20.2539 7.74219V10.4473ZM16.1426 5.25195C16.1426 4.51628 16.1003 4.04753 16.0156 3.8457C15.9375 3.63737 15.7715 3.5332 15.5176 3.5332C15.3027 3.5332 15.1367 3.61784 15.0195 3.78711C14.9089 3.94987 14.8535 4.43815 14.8535 5.25195V12.6348C14.8535 13.5527 14.8893 14.1191 14.9609 14.334C15.0391 14.5488 15.2148 14.6562 15.4883 14.6562C15.7682 14.6562 15.9473 14.5326 16.0254 14.2852C16.1035 14.0378 16.1426 13.4486 16.1426 12.5176V5.25195ZM30.5078 5.97461H26.6895V4.80273C26.6895 4.25586 26.6406 3.90755 26.543 3.75781C26.4453 3.60807 26.2826 3.5332 26.0547 3.5332C25.8073 3.5332 25.6185 3.63411 25.4883 3.83594C25.3646 4.03776 25.3027 4.34375 25.3027 4.75391C25.3027 5.28125 25.3743 5.67839 25.5176 5.94531C25.6543 6.21224 26.0417 6.53451 26.6797 6.91211C28.5091 7.99935 29.6615 8.89128 30.1367 9.58789C30.612 10.2845 30.8496 11.4076 30.8496 12.957C30.8496 14.0833 30.7161 14.9134 30.4492 15.4473C30.1888 15.9811 29.681 16.4303 28.9258 16.7949C28.1706 17.153 27.2917 17.332 26.2891 17.332C25.1888 17.332 24.248 17.1237 23.4668 16.707C22.6921 16.2904 22.1842 15.7598 21.9434 15.1152C21.7025 14.4707 21.582 13.556 21.582 12.3711V11.3359H25.4004V13.2598C25.4004 13.8522 25.4525 14.2331 25.5566 14.4023C25.6673 14.5716 25.8594 14.6562 26.1328 14.6562C26.4062 14.6562 26.6081 14.5488 26.7383 14.334C26.875 14.1191 26.9434 13.8001 26.9434 13.377C26.9434 12.446 26.8164 11.8372 26.5625 11.5508C26.3021 11.2643 25.6608 10.7858 24.6387 10.1152C23.6165 9.43815 22.9395 8.94661 22.6074 8.64062C22.2754 8.33464 21.9987 7.91146 21.7773 7.37109C21.5625 6.83073 21.4551 6.14062 21.4551 5.30078C21.4551 4.08984 21.6081 3.20443 21.9141 2.64453C22.2266 2.08464 22.7279 1.64844 23.418 1.33594C24.1081 1.01693 24.9414 0.857422 25.918 0.857422C26.9857 0.857422 27.8939 1.02995 28.6426 1.375C29.3978 1.72005 29.8958 2.15625 30.1367 2.68359C30.3841 3.20443 30.5078 4.0931 30.5078 5.34961V5.97461ZM40.4297 1.18945V4.35352H37.9883V17H33.877V4.35352H31.4453V1.18945H40.4297ZM41.3672 1.18945H44.4434C46.429 1.18945 47.7702 1.2806 48.4668 1.46289C49.1699 1.64518 49.7038 1.94466 50.0684 2.36133C50.4329 2.77799 50.6608 3.24349 50.752 3.75781C50.8431 4.26562 50.8887 5.26823 50.8887 6.76562V12.3027C50.8887 13.722 50.8203 14.6725 50.6836 15.1543C50.5534 15.6296 50.3223 16.0039 49.9902 16.2773C49.6582 16.5443 49.248 16.7331 48.7598 16.8438C48.2715 16.9479 47.5358 17 46.5527 17H41.3672V1.18945ZM45.4785 3.89453V14.2949C46.071 14.2949 46.4355 14.1777 46.5723 13.9434C46.709 13.7025 46.7773 13.0547 46.7773 12V5.85742C46.7773 5.14128 46.7546 4.68229 46.709 4.48047C46.6634 4.27865 46.5592 4.13216 46.3965 4.04102C46.2337 3.94336 45.9277 3.89453 45.4785 3.89453ZM65.1074 1.18945V17H61.5137V6.32617L60.0781 17H57.5293L56.0156 6.57031V17H52.4219V1.18945H57.7441C57.9004 2.13997 58.0664 3.25977 58.2422 4.54883L58.8086 8.57227L59.7461 1.18945H65.1074Z" fill="black"/>
</svg>
